<?xml version="1.0" encoding="utf-8"?>
<!-- Generator: Adobe Illustrator 24.0.0, SVG Export Plug-In . SVG Version: 6.00 Build 0)  -->
<svg version="1.1" id="Layer_1" xmlns="http://www.w3.org/2000/svg" xmlns:xlink="http://www.w3.org/1999/xlink" x="0px" y="0px"
	 viewBox="0 0 150.93 280.06" style="enable-background:new 0 0 150.93 280.06;" xml:space="preserve">
<style type="text/css">
	.st0{fill:#6ABF4B;}
</style>
<g>
	<path class="st0" d="M25.05,139.44c2.19-1.54,3.88-2.41,5.16-3.68c38.71-38.57,77.38-77.19,116.05-115.8
		c5.63-5.62,6.19-12,1.51-16.65c-4.86-4.82-10.92-4.37-16.62,1.32C89.09,46.68,47.03,88.74,4.98,130.81
		c-6.69,6.7-6.63,12.07,0.12,18.81c41.59,41.59,83.17,83.19,124.8,124.74c1.85,1.85,3.98,3.63,6.32,4.73
		c4.38,2.07,9.15,0.75,12.1-3.12c2.89-3.78,3.3-8.02,0.79-12.14c-1.19-1.96-2.92-3.62-4.56-5.26
		c-34.03-34.07-68.07-68.12-102.14-102.15C37.11,151.12,31.7,145.93,25.05,139.44z"/>
	<path class="st0" d="M25.05,139.44c6.64,6.49,12.05,11.68,17.35,16.97c34.06,34.03,68.11,68.08,102.14,102.15
		c1.64,1.64,3.37,3.31,4.56,5.26c2.51,4.12,2.1,8.36-0.79,12.14c-2.96,3.88-7.73,5.19-12.1,3.12c-2.34-1.1-4.47-2.88-6.32-4.73
		C88.26,232.81,46.68,191.21,5.1,149.62c-6.75-6.75-6.81-12.11-0.12-18.81C47.03,88.74,89.09,46.68,131.16,4.63
		c5.7-5.69,11.76-6.14,16.62-1.32c4.68,4.65,4.12,11.03-1.51,16.65C107.6,58.57,68.92,97.19,30.21,135.76
		C28.93,137.04,27.24,137.9,25.05,139.44z"/>
</g>
</svg>
