<?xml version="1.0" encoding="utf-8"?>
<!-- Generator: Adobe Illustrator 24.0.0, SVG Export Plug-In . SVG Version: 6.00 Build 0)  -->
<svg version="1.1" id="Capa_1" xmlns="http://www.w3.org/2000/svg" xmlns:xlink="http://www.w3.org/1999/xlink" x="0px" y="0px"
	 viewBox="0 0 81 80" style="enable-background:new 0 0 81 80;" xml:space="preserve">
<style type="text/css">
	.st0{fill:#005CB9;}
</style>
<g>
	<path class="st0" d="M63.77,8.63c2.87-0.01,5.74-0.06,8.61-0.01c4.97,0.09,8.61,3.68,8.62,8.67c0.04,18.13,0.04,36.27,0,54.4
		c-0.01,5.05-3.67,8.68-8.75,8.68c-20.96,0.03-41.91,0.03-62.87,0c-5.13-0.01-8.74-3.67-8.75-8.83c-0.03-18.04-0.03-36.07,0-54.11
		c0.01-5.15,3.63-8.75,8.77-8.82c2.82-0.04,5.64,0.01,8.47,0.01l-0.04-0.04c0.01,1.1,0.02,2.19,0.02,3.29
		c0.01,2.72-0.03,5.44,0.02,8.15c0.03,1.37,0.74,2.35,2.07,2.77c1.32,0.41,2.41-0.08,3.09-1.18c0.37-0.6,0.52-1.43,0.53-2.16
		c0.06-3.62,0.04-7.25,0.05-10.87l-0.04,0.04c11.5,0,22.99,0,34.49,0l-0.04-0.04c0.01,1.1,0.02,2.19,0.02,3.29
		c0.01,2.72-0.03,5.44,0.02,8.15c0.03,1.37,0.74,2.35,2.07,2.77c1.32,0.41,2.41-0.08,3.09-1.18c0.37-0.6,0.52-1.43,0.53-2.16
		c0.06-3.62,0.04-7.25,0.05-10.87L63.77,8.63z M6.37,34.51c0,0.58,0,1.05,0,1.52c0,11.52,0,23.05,0,34.57c0,3.14,0.89,4.03,4,4.04
		c20.32,0,40.65,0,60.97,0c3,0,3.93-0.94,3.93-3.97c0-11.57,0-23.15,0-34.72c0-0.46-0.04-0.93-0.06-1.44
		C52.27,34.51,29.42,34.51,6.37,34.51z"/>
	<path class="st0" d="M17.87,8.63c-0.01-1.86-0.04-3.71-0.01-5.57c0.02-1.81,1.21-3.06,2.87-3.07c1.64-0.01,2.84,1.25,2.87,3.07
		c0.03,1.85-0.01,3.71-0.01,5.57l0.04-0.04c-1.93,0-3.85,0-5.78,0L17.87,8.63z"/>
	<path class="st0" d="M58.07,8.63C58.06,6.82,58.03,5,58.05,3.18c0.02-1.87,1.16-3.14,2.79-3.18c1.69-0.04,2.92,1.25,2.94,3.18
		c0.02,1.82-0.01,3.63-0.02,5.45l0.04-0.04c-1.93,0-3.85,0-5.78,0L58.07,8.63z"/>
	<path class="st0" d="M35.09,61.88c0.43-0.41,0.82-0.75,1.18-1.11c6.44-6.42,12.87-12.84,19.31-19.25c1.58-1.58,3.14-1.72,4.4-0.48
		c1.07,1.05,1.22,2.4,0.35,3.63c-0.3,0.43-0.67,0.81-1.04,1.18c-7.13,7.14-14.27,14.28-21.41,21.41c-2.18,2.17-3.41,2.18-5.55,0.04
		c-3.45-3.45-6.91-6.89-10.35-10.36c-1.73-1.75-1.61-3.71,0.24-4.82c1.23-0.75,2.41-0.54,3.73,0.76c2.7,2.65,5.36,5.32,8.05,7.99
		C34.32,61.19,34.68,61.5,35.09,61.88z"/>
</g>
</svg>
