<?xml version="1.0" encoding="utf-8"?>
<!-- Generator: Adobe Illustrator 24.0.0, SVG Export Plug-In . SVG Version: 6.00 Build 0)  -->
<svg version="1.1" id="Capa_1" xmlns="http://www.w3.org/2000/svg" xmlns:xlink="http://www.w3.org/1999/xlink" x="0px" y="0px"
	 viewBox="0 0 117 118" style="enable-background:new 0 0 117 118;" xml:space="preserve">
<style type="text/css">
	.st0{fill:#005CB9;}
</style>
<g>
	<g>
		<g>
			<path class="st0" d="M109.34,46.03h-9.56c-0.8-2.62-1.85-5.14-3.13-7.55l6.75-6.75c1.45-1.45,2.24-3.37,2.24-5.42
				c0-2.05-0.8-3.97-2.24-5.42l-7.23-7.23c-2.89-2.89-7.94-2.9-10.84,0l-6.75,6.75c-2.41-1.27-4.94-2.32-7.55-3.13V7.73
				c0-4.22-3.44-7.66-7.66-7.66H53.17c-4.22,0-7.66,3.44-7.66,7.66v9.56c-2.62,0.8-5.14,1.85-7.55,3.13l-6.76-6.75
				c-2.99-2.99-7.85-2.99-10.84,0l-7.23,7.23c-2.98,2.99-2.98,7.85,0,10.84l6.75,6.76c-1.27,2.41-2.32,4.94-3.13,7.55H7.21
				c-4.22,0-7.66,3.44-7.66,7.66V63.9c0,4.22,3.44,7.66,7.66,7.66h9.56c0.8,2.62,1.85,5.14,3.13,7.55l-6.75,6.76
				c-2.99,2.99-2.99,7.85,0,10.84l7.23,7.23c2.99,2.98,7.85,2.98,10.84,0l6.76-6.75c2.41,1.27,4.94,2.32,7.55,3.13v9.55
				c0,4.22,3.44,7.66,7.66,7.66h10.21c4.22,0,7.66-3.44,7.66-7.66v-9.56c2.62-0.8,5.15-1.85,7.55-3.13l6.75,6.76
				c2.9,2.89,7.95,2.89,10.84,0l7.23-7.23c1.45-1.45,2.24-3.37,2.24-5.42c0-2.05-0.8-3.97-2.24-5.42l-6.75-6.76
				c1.27-2.41,2.32-4.94,3.13-7.55h9.56c4.22,0,7.66-3.44,7.66-7.66V53.69C117,49.46,113.56,46.03,109.34,46.03z M111.89,63.9
				c0,1.41-1.14,2.55-2.55,2.55H97.85c-1.16,0-2.18,0.79-2.47,1.92c-0.9,3.49-2.28,6.81-4.1,9.89c-0.59,1-0.43,2.28,0.39,3.1
				l8.12,8.12c0.48,0.48,0.75,1.12,0.75,1.81c0,0.69-0.27,1.33-0.75,1.81l-7.23,7.23c-0.96,0.96-2.65,0.96-3.62,0l-8.12-8.12
				c-0.82-0.82-2.1-0.98-3.1-0.39c-3.07,1.81-6.4,3.19-9.88,4.09c-1.12,0.29-1.91,1.3-1.91,2.47v11.49c0,1.41-1.14,2.55-2.55,2.55
				H53.17c-1.41,0-2.55-1.15-2.55-2.55V98.37c0-1.16-0.79-2.18-1.91-2.47c-3.49-0.9-6.81-2.28-9.89-4.09
				c-0.4-0.24-0.85-0.35-1.3-0.35c-0.66,0-1.31,0.26-1.81,0.75l-8.12,8.12c-1,1-2.62,1-3.62,0l-7.23-7.23c-1-1-1-2.62,0-3.62
				l8.12-8.12c0.82-0.82,0.99-2.1,0.39-3.1c-1.81-3.07-3.19-6.4-4.09-9.89c-0.29-1.13-1.3-1.92-2.47-1.92H7.21
				c-1.41,0-2.55-1.15-2.55-2.55V53.69c0-1.41,1.15-2.55,2.55-2.55H18.7c1.16,0,2.18-0.79,2.47-1.92c0.9-3.49,2.28-6.81,4.09-9.89
				c0.59-1,0.43-2.28-0.39-3.1l-8.12-8.12c-1-1-1-2.62,0-3.62l7.23-7.23c1-1,2.62-1,3.62,0l8.12,8.12c0.82,0.82,2.1,0.99,3.1,0.39
				c3.07-1.81,6.4-3.19,9.89-4.09c1.13-0.29,1.92-1.31,1.92-2.47V7.73c0-1.41,1.15-2.55,2.55-2.55h10.21c1.41,0,2.55,1.15,2.55,2.55
				v11.49c0,1.16,0.79,2.18,1.92,2.47c3.49,0.9,6.81,2.28,9.88,4.09c1.01,0.59,2.28,0.43,3.1-0.39l8.12-8.12
				c0.96-0.97,2.66-0.96,3.62,0l7.23,7.23c0.48,0.48,0.75,1.12,0.75,1.81c0,0.68-0.27,1.33-0.75,1.81l-8.12,8.12
				c-0.82,0.82-0.99,2.1-0.39,3.1c1.82,3.07,3.19,6.4,4.1,9.89c0.29,1.13,1.3,1.92,2.47,1.92h11.49c1.41,0,2.55,1.15,2.55,2.55V63.9
				z"/>
		</g>
	</g>
	<g>
		<g>
			<path class="st0" d="M58.27,35.81c-12.67,0-22.98,10.31-22.98,22.98S45.6,81.77,58.27,81.77c12.67,0,22.98-10.31,22.98-22.98
				S70.95,35.81,58.27,35.81z M58.27,76.67c-9.86,0-17.87-8.02-17.87-17.87s8.02-17.87,17.87-17.87c9.85,0,17.87,8.02,17.87,17.87
				S68.13,76.67,58.27,76.67z"/>
		</g>
	</g>
</g>
</svg>
