<?xml version="1.0" encoding="utf-8"?>
<!-- Generator: Adobe Illustrator 24.0.0, SVG Export Plug-In . SVG Version: 6.00 Build 0)  -->
<svg version="1.1" id="Layer_1" xmlns="http://www.w3.org/2000/svg" xmlns:xlink="http://www.w3.org/1999/xlink" x="0px" y="0px"
	 viewBox="0 0 196.08 196.08" style="enable-background:new 0 0 196.08 196.08;" xml:space="preserve">
<style type="text/css">
	.st0{fill:#FFFFFF;}
</style>
<g>
	<text transform="matrix(1 0 0 1 -204.9522 970.1785)" style="fill:#F7A123; font-family:'Montserrat-Bold'; font-size:15.4496px;">4. Recibe</text>
</g>
<rect x="-211.66" y="980.65" style="fill:none;" width="93.07" height="22.07"/>
<text transform="matrix(1 0 0 1 -198.8785 986.1755)"><tspan x="0" y="0" style="fill:#606060; font-family:'Montserrat-Medium'; font-size:7.7867px;">Recibe tu producto y </tspan><tspan x="18.32" y="9.34" style="fill:#606060; font-family:'Montserrat-Medium'; font-size:7.7867px;">disfrútalo</tspan></text>
<g>
	<path class="st0" d="M145.99,64.16h-5.36V39.84c0-3.66-2.98-6.64-6.64-6.64h-12.05c-1,0-1.81,0.81-1.81,1.81s0.81,1.81,1.81,1.81
		H134c1.66,0,3.02,1.35,3.02,3.02v24.33h-26.67c-3.66,0-6.64,2.98-6.64,6.64v45.3c0,3.66,2.98,6.64,6.64,6.64h0.03v6.29
		c-0.07,2.18,2.81,3.38,4.31,1.78l7.9-7.9c0.11-0.11,0.27-0.18,0.43-0.18h22.98c3.66,0,6.64-2.98,6.64-6.64V70.8
		C152.63,67.14,149.65,64.16,145.99,64.16L145.99,64.16z M149.01,116.1c0,1.66-1.35,3.02-3.02,3.02h-22.98
		c-1.13,0-2.19,0.44-2.99,1.24l-6.03,6.03v-4.49c0-1.53-1.25-2.78-2.78-2.78h-0.87c-1.66,0-3.02-1.35-3.02-3.02V70.8
		c0-1.66,1.35-3.02,3.02-3.02h35.64c1.66,0,3.02,1.35,3.02,3.02V116.1z"/>
	<g>
		<path class="st0" d="M138.83,127.72c-1,0-1.81,0.81-1.81,1.81v5.56H62.35v-33.44c3.5,0,8.57,0.01,15.96,0.01
			c0.16,0,0.31,0.06,0.43,0.18l7.74,7.74c1.5,1.6,4.38,0.4,4.31-1.78v-6.13h0.03c3.66,0,6.64-2.98,6.64-6.64v-45.3
			c0-3.66-2.98-6.64-6.64-6.64H62.35v-3.24c0-1.66,1.35-3.02,3.02-3.02h47.19c1,0,1.81-0.81,1.81-1.81c0-1-0.81-1.81-1.81-1.81
			H65.37c-3.66,0-6.64,2.98-6.64,6.64v3.24h-3.56c-3.66,0-6.64,2.98-6.64,6.64v7.66c0,1,0.81,1.81,1.81,1.81
			c1,0,1.81-0.81,1.81-1.81v-7.66c0-1.66,1.35-3.02,3.02-3.02h35.64c1.66,0,3.02,1.35,3.02,3.02v45.3c0,1.66-1.35,3.02-3.02,3.02
			h-0.87c-1.53,0-2.78,1.25-2.78,2.78v4.33l-5.87-5.87c-0.8-0.8-1.86-1.24-2.99-1.24c-6.22,0-22.3-0.01-23.48-0.02
			c-1.53-0.17-2.68-1.45-2.68-3V65.98c0-1-0.81-1.81-1.81-1.81c-1,0-1.81,0.81-1.81,1.81v29.04c0,3.46,2.6,6.3,6.04,6.61v0
			c0.13,0.01,0.66,0.01,4.16,0.02v48.62c0,3.66,2.98,6.64,6.64,6.64H134c3.66,0,6.64-2.98,6.64-6.64v-20.73
			C140.64,128.53,139.83,127.72,138.83,127.72L138.83,127.72z M137.02,150.26c0,1.66-1.35,3.02-3.02,3.02H65.37
			c-1.66,0-3.02-1.35-3.02-3.02v-11.55h74.67V150.26z"/>
		<path class="st0" d="M93.85,148.29h11.68c1,0,1.81-0.81,1.81-1.81c0-1-0.81-1.81-1.81-1.81H93.85c-1,0-1.81,0.81-1.81,1.81
			C92.04,147.48,92.85,148.29,93.85,148.29z"/>
		<path class="st0" d="M77.5,80.09h-8.97c-0.24,0-0.41,0.24-0.33,0.46c0.7,1.99,2.59,3.42,4.81,3.42c2.23,0,4.12-1.43,4.81-3.42
			C77.9,80.33,77.74,80.09,77.5,80.09z"/>
		<path class="st0" d="M78.77,70.86c-1.1,0-1.99,0.89-1.99,1.99s0.89,1.99,1.99,1.99s1.99-0.89,1.99-1.99
			C80.76,71.75,79.87,70.86,78.77,70.86z"/>
		<path class="st0" d="M69.25,72.85c0-1.1-0.89-1.99-1.99-1.99c-1.1,0-1.99,0.89-1.99,1.99c0,1.1,0.89,1.99,1.99,1.99
			C68.35,74.85,69.25,73.95,69.25,72.85z"/>
		<path class="st0" d="M83.58,52.15H62.59c-2.49,0-4.52,2.03-4.52,4.52v12.12c-1.99,0.22-3.54,1.91-3.54,3.96v1.38
			c0,2.72,1.72,5.11,4.21,6.03c0.76,2.51,2.16,4.78,4.06,6.6l3.07,2.94c2.02,1.94,4.62,2.9,7.22,2.9c2.6,0,5.19-0.97,7.22-2.9
			l3.07-2.94c1.9-1.82,3.29-4.09,4.06-6.6c2.49-0.92,4.21-3.31,4.21-6.03v-1.38c0-2.05-1.55-3.74-3.54-3.96V56.67
			C88.1,54.18,86.07,52.15,83.58,52.15z M61.7,56.67c0-0.49,0.4-0.89,0.89-0.89h20.99c0.49,0,0.89,0.4,0.89,0.89v5.04
			c-3.52-1.56-7.41-2.37-11.39-2.37c-3.98,0-7.86,0.81-11.39,2.37L61.7,56.67L61.7,56.67z M88.02,74.13c0,1.34-0.95,2.49-2.26,2.75
			c-0.79,0.15-1.41,0.76-1.6,1.53c-0.52,2.19-1.66,4.17-3.28,5.73l-3.07,2.94c-2.64,2.53-6.78,2.53-9.42,0l-3.07-2.94
			c-1.62-1.55-2.76-3.53-3.28-5.73c-0.19-0.78-0.81-1.38-1.6-1.53c-1.31-0.26-2.26-1.41-2.26-2.75v-1.38c0-0.2,0.16-0.36,0.36-0.36
			h1.37c1,0,1.81-0.81,1.81-1.81v-4.84c3.43-1.81,7.36-2.77,11.39-2.77c4.03,0,7.96,0.96,11.39,2.77v4.84c0,1,0.81,1.81,1.81,1.81
			h1.37c0.2,0,0.36,0.16,0.36,0.36L88.02,74.13z"/>
		<g>
			<g>
				<path class="st0" d="M123.47,100.95c-0.24,0-0.41,0.24-0.33,0.46c0.7,1.99,2.58,3.42,4.81,3.42s4.11-1.43,4.81-3.42
					c0.08-0.22-0.09-0.46-0.33-0.46H123.47z"/>
			</g>
		</g>
		<g>
			<g>
				<circle class="st0" cx="133.7" cy="93.72" r="1.99"/>
			</g>
		</g>
		<g>
			<g>
				<circle class="st0" cx="122.2" cy="93.72" r="1.99"/>
			</g>
		</g>
		<path class="st0" d="M142.96,89.84v-5.3c0-6.52-5.3-11.83-11.83-11.83h-6.38c-6.52,0-11.83,5.3-11.83,11.83v5.3
			c-1.99,0.22-3.54,1.91-3.54,3.96v1.38c0,2.74,1.69,5.12,4.21,6.03c0.77,2.51,2.16,4.78,4.06,6.6l3.07,2.94
			c2.02,1.94,4.62,2.9,7.22,2.9c2.6,0,5.19-0.97,7.22-2.9l3.07-2.94c1.9-1.82,3.29-4.09,4.06-6.6c2.52-0.92,4.21-3.29,4.21-6.03
			V93.8C146.5,91.75,144.95,90.06,142.96,89.84L142.96,89.84z M124.76,76.34h6.38c3.03,0,5.67,1.65,7.1,4.1
			c-0.61-0.18-1.25-0.28-1.91-0.28h-16.74c-0.67,0-1.31,0.1-1.91,0.28C119.09,77.99,121.73,76.34,124.76,76.34L124.76,76.34z
			 M142.88,95.18c0,1.32-0.9,2.44-2.19,2.73c-0.84,0.19-1.49,0.83-1.71,1.68c-0.54,2.14-1.66,4.08-3.25,5.6l-3.07,2.94
			c-2.64,2.53-6.78,2.53-9.42,0l-3.07-2.94c-1.59-1.52-2.71-3.46-3.25-5.6c-0.21-0.85-0.87-1.49-1.71-1.68
			c-1.27-0.29-2.19-1.44-2.19-2.73V93.8c0-0.2,0.16-0.36,0.36-0.36h1.12c1.13,0,2.05-0.92,2.05-2.05V86.8
			c0-1.67,1.35-3.02,3.02-3.02h16.74c1.67,0,3.02,1.35,3.02,3.02v4.59c0,1.13,0.92,2.05,2.05,2.05h1.12c0.2,0,0.36,0.16,0.36,0.36
			L142.88,95.18L142.88,95.18z"/>
	</g>
</g>
</svg>
