<?xml version="1.0" encoding="utf-8"?>
<!-- Generator: Adobe Illustrator 24.0.0, SVG Export Plug-In . SVG Version: 6.00 Build 0)  -->
<svg version="1.1" id="Layer_1" xmlns="http://www.w3.org/2000/svg" xmlns:xlink="http://www.w3.org/1999/xlink" x="0px" y="0px"
	 viewBox="0 0 93 81.69" style="enable-background:new 0 0 93 81.69;" xml:space="preserve">
<style type="text/css">
	.st0{fill:#005CB9;}
</style>
<g>
	<path class="st0" d="M87.93,24.94h-5.21V7.32C82.72,3.28,79.44,0,75.4,0H12.31C8.27,0,4.99,3.28,4.99,7.32v44.7
		c0,1.68,0.59,3.26,1.59,4.52H2.36c-1.3,0-2.36,1.06-2.36,2.37v3.46c0,3.32,2.68,6.02,5.98,6.02h33.79c0.75,0,1.36-0.61,1.36-1.36
		c0-0.75-0.61-1.36-1.36-1.36H5.98c-1.79,0-3.26-1.48-3.26-3.3v-3.1h57.39v6.4H46.12c-0.75,0-1.36,0.61-1.36,1.36
		c0,0.75,0.61,1.36,1.36,1.36h13.99v8.23c0,2.79,2.27,5.07,5.07,5.07h22.75c2.79,0,5.07-2.27,5.07-5.07c0-2.08,0-45.13,0-46.62
		C93,27.21,90.73,24.94,87.93,24.94L87.93,24.94z M60.12,56.55H11.48c-2.16-0.4-3.77-2.32-3.77-4.52V7.32c0-2.54,2.06-4.6,4.6-4.6
		H75.4c2.54,0,4.6,2.06,4.6,4.6v17.61h-2.63c0-1.91,0-15.1,0-17.19c0-1.34-1.09-2.43-2.43-2.43c-0.37,0-60.27,0-62.16,0
		c-1.34,0-2.43,1.09-2.43,2.43v43.79c0,1.34,1.09,2.43,2.43,2.43h47.35L60.12,56.55L60.12,56.55z M74.64,8.04v3.62H20.01V8.04H74.64
		z M17.29,8.04v3.62h-4.23V8.04H17.29z M60.12,30v21.24H13.06V14.38h61.58v10.56h-9.46C62.39,24.94,60.12,27.21,60.12,30L60.12,30z
		 M62.84,35.35h2.74v2.73h-2.74V35.35z M90.28,76.62c0,1.29-1.05,2.34-2.34,2.34H65.18c-1.29,0-2.34-1.05-2.34-2.34v-3.9h27.44
		V76.62z M90.28,69.99H62.84c0-11.12,0-18.08,0-29.19h27.44V69.99z M90.28,38.08H68.3v-2.73h21.97V38.08z M90.28,32.63
		c-1.39,0-26.2,0-27.44,0V30c0-1.29,1.05-2.34,2.34-2.34h22.75c1.29,0,2.34,1.05,2.34,2.34L90.28,32.63L90.28,32.63z"/>
	<path class="st0" d="M75.11,76.92h2.9c0.75,0,1.36-0.61,1.36-1.36c0-0.75-0.61-1.36-1.36-1.36h-2.9c-0.75,0-1.36,0.61-1.36,1.36
		C73.75,76.31,74.36,76.92,75.11,76.92z"/>
	<path class="st0" d="M48.35,30.51l-5.85-3.99c-1.85-1.26-4.36,0.07-4.36,2.31v7.97c0,2.24,2.51,3.57,4.36,2.31l5.85-3.99
		C49.97,34.01,49.97,31.61,48.35,30.51z M46.81,32.87l-5.85,3.99c-0.02,0.01-0.03,0.02-0.07,0c-0.03-0.02-0.03-0.04-0.03-0.06v-7.97
		c0-0.02,0-0.04,0.03-0.06c0.01-0.01,0.02-0.01,0.03-0.01c0.01,0,0.02,0.01,0.03,0.01l5.85,3.99c0.01,0.01,0.03,0.02,0.03,0.05
		C46.84,32.85,46.82,32.86,46.81,32.87L46.81,32.87z"/>
	<path class="st0" d="M42.94,20.06c-7.03,0-12.75,5.72-12.75,12.75s5.72,12.75,12.75,12.75S55.7,39.84,55.7,32.81
		S49.98,20.06,42.94,20.06L42.94,20.06z M42.94,42.84c-5.53,0-10.03-4.5-10.03-10.03s4.5-10.03,10.03-10.03
		c5.53,0,10.03,4.5,10.03,10.03S48.47,42.84,42.94,42.84z"/>
	<path class="st0" d="M76.27,49.6c-1.73-1.18-4.07,0.07-4.07,2.15v6.94c0,2.1,2.36,3.32,4.07,2.15l5.09-3.47
		c1.52-1.03,1.52-3.27,0-4.3L76.27,49.6z M74.92,58.46v-6.49l4.76,3.24L74.92,58.46z"/>
	<path class="st0" d="M76.56,66.49c4.74,0,9-3,10.61-7.46c0.26-0.71-0.11-1.49-0.82-1.74c-0.71-0.25-1.49,0.11-1.74,0.82
		c-1.22,3.38-4.45,5.65-8.05,5.65c-4.72,0-8.55-3.84-8.55-8.55s3.84-8.55,8.55-8.55c3.75,0,7.02,2.4,8.15,5.97
		c0.23,0.72,0.99,1.11,1.71,0.89c0.72-0.23,1.11-0.99,0.89-1.71c-1.49-4.71-5.81-7.87-10.75-7.87c-6.22,0-11.28,5.06-11.28,11.28
		S70.34,66.49,76.56,66.49L76.56,66.49z"/>
</g>
</svg>
