<?xml version="1.0" encoding="utf-8"?>
<!-- Generator: Adobe Illustrator 24.0.0, SVG Export Plug-In . SVG Version: 6.00 Build 0)  -->
<svg version="1.1" id="Capa_1" xmlns="http://www.w3.org/2000/svg" xmlns:xlink="http://www.w3.org/1999/xlink" x="0px" y="0px"
	 viewBox="0 0 23 23" style="enable-background:new 0 0 23 23;" xml:space="preserve">
<style type="text/css">
	.st0{fill:#6ABF4B;}
	.st1{fill:#FFFFFF;}
</style>
<circle class="st0" cx="11.54" cy="11.9" r="11"/>
<g>
	<path class="st1" d="M9.71,10.41c0.87-0.24,1.32-0.88,1.64-1.63c0.15-0.36,0.26-0.73,0.37-1.1c0.14-0.47,0.33-0.59,0.82-0.45
		c0.46,0.13,0.72,0.48,0.73,0.96c0.01,0.69-0.07,1.36-0.31,2.01c-0.02,0.07-0.04,0.14-0.07,0.24c0.09,0,0.15,0,0.22,0
		c0.77,0,1.54,0,2.31,0c0.26,0,0.5,0.08,0.65,0.3c0.21,0.32,0.1,0.73-0.23,0.91c-0.07,0.04-0.14,0.07-0.21,0.1
		c0.3,0.06,0.5,0.25,0.55,0.52c0.05,0.3-0.09,0.53-0.47,0.76c0.34,0.16,0.56,0.41,0.46,0.79c-0.14,0.55-0.6,0.51-1.05,0.51
		c0.11,0.09,0.21,0.15,0.28,0.24c0.15,0.19,0.19,0.41,0.09,0.65c-0.11,0.23-0.28,0.38-0.55,0.39c-0.2,0.01-0.39,0.01-0.59,0.01
		c-0.61,0-1.22-0.02-1.83,0c-0.79,0.03-1.54-0.07-2.27-0.37c-0.16-0.07-0.4-0.07-0.48-0.19c-0.09-0.13-0.04-0.35-0.04-0.53
		c0-1.3,0-2.6,0-3.9C9.71,10.56,9.71,10.49,9.71,10.41z"/>
	<path class="st1" d="M6.47,13.02c0-0.93,0-1.85,0-2.78c0-0.34,0.09-0.43,0.43-0.43c0.37,0,0.74,0,1.1,0c0.65,0,1.04,0.39,1.05,1.04
		c0.01,0.49,0,0.98,0,1.48c0,0.94,0,1.88,0,2.82c0,0.75-0.38,1.13-1.12,1.13c-0.35,0-0.7,0-1.04,0c-0.31,0-0.42-0.11-0.42-0.42
		C6.47,14.91,6.47,13.97,6.47,13.02z M7.77,14.64c-0.01,0.17,0.12,0.32,0.29,0.33c0.18,0.01,0.33-0.12,0.34-0.3
		c0.01-0.18-0.13-0.33-0.31-0.33C7.93,14.34,7.78,14.47,7.77,14.64z"/>
	<path class="st1" d="M12.62,5.91c0,0.1,0.01,0.21,0,0.31c-0.02,0.2-0.15,0.33-0.33,0.33c-0.17,0-0.3-0.12-0.32-0.31
		c-0.01-0.23-0.01-0.46,0-0.69c0.01-0.19,0.15-0.31,0.32-0.31c0.16,0,0.3,0.13,0.32,0.31C12.63,5.67,12.62,5.79,12.62,5.91
		L12.62,5.91z"/>
	<path class="st1" d="M10.23,6.11c0.21,0,0.78,0.58,0.78,0.79C11,7.12,10.75,7.3,10.59,7.18C10.35,7,10.13,6.79,9.95,6.55
		C9.82,6.38,10.01,6.11,10.23,6.11z"/>
	<path class="st1" d="M13.91,7.21c-0.24,0-0.43-0.26-0.3-0.43c0.18-0.24,0.4-0.44,0.63-0.62c0.06-0.05,0.26,0,0.32,0.07
		c0.07,0.07,0.11,0.27,0.06,0.33c-0.19,0.23-0.41,0.43-0.62,0.64C13.98,7.21,13.93,7.2,13.91,7.21z"/>
</g>
</svg>
