<?xml version="1.0" encoding="utf-8"?>
<!-- Generator: Adobe Illustrator 24.0.0, SVG Export Plug-In . SVG Version: 6.00 Build 0)  -->
<svg version="1.1" id="Capa_1" xmlns="http://www.w3.org/2000/svg" xmlns:xlink="http://www.w3.org/1999/xlink" x="0px" y="0px"
	 viewBox="0 0 10 12" style="enable-background:new 0 0 10 12;" xml:space="preserve">
<style type="text/css">
	.st0{fill:#6ABF4B;}
</style>
<g>
	<path class="st0" d="M3.25,5.94C4.12,5.7,4.57,5.07,4.89,4.31c0.15-0.36,0.26-0.73,0.37-1.1C5.4,2.74,5.59,2.63,6.08,2.77
		C6.53,2.9,6.79,3.25,6.8,3.73C6.82,4.42,6.73,5.09,6.5,5.74C6.47,5.81,6.46,5.88,6.43,5.98c0.09,0,0.15,0,0.22,0
		c0.77,0,1.54,0,2.31,0c0.26,0,0.5,0.08,0.65,0.3c0.21,0.32,0.1,0.73-0.23,0.91C9.3,7.23,9.23,7.26,9.16,7.29
		c0.3,0.06,0.5,0.25,0.55,0.52c0.05,0.3-0.09,0.53-0.47,0.76c0.34,0.16,0.56,0.41,0.46,0.79c-0.14,0.55-0.6,0.51-1.05,0.51
		c0.11,0.09,0.21,0.15,0.28,0.24c0.15,0.19,0.19,0.41,0.09,0.65c-0.11,0.23-0.28,0.38-0.55,0.39c-0.2,0.01-0.39,0.01-0.59,0.01
		c-0.61,0-1.22-0.02-1.83,0c-0.79,0.03-1.54-0.07-2.27-0.37c-0.16-0.07-0.4-0.07-0.48-0.19c-0.09-0.13-0.04-0.35-0.04-0.53
		c0-1.3,0-2.6,0-3.9C3.25,6.1,3.25,6.03,3.25,5.94z"/>
	<path class="st0" d="M0.02,8.55c0-0.93,0-1.85,0-2.78c0-0.34,0.09-0.43,0.43-0.43c0.37,0,0.74,0,1.1,0c0.65,0,1.04,0.39,1.05,1.04
		c0.01,0.49,0,0.98,0,1.48c0,0.94,0,1.88,0,2.82c0,0.75-0.38,1.13-1.12,1.13c-0.35,0-0.7,0-1.04,0c-0.31,0-0.42-0.11-0.42-0.42
		C0.02,10.44,0.02,9.5,0.02,8.55z M1.32,10.17c-0.01,0.17,0.12,0.32,0.29,0.33c0.18,0.01,0.33-0.12,0.34-0.3
		c0.01-0.18-0.13-0.33-0.31-0.33C1.47,9.87,1.33,10,1.32,10.17z"/>
	<path class="st0" d="M6.16,1.44c0,0.1,0.01,0.21,0,0.31c-0.02,0.2-0.15,0.33-0.33,0.33c-0.17,0-0.3-0.12-0.32-0.31
		c-0.01-0.23-0.01-0.46,0-0.69c0.01-0.19,0.15-0.31,0.32-0.31c0.16,0,0.3,0.13,0.32,0.31C6.17,1.2,6.16,1.32,6.16,1.44L6.16,1.44z"
		/>
	<path class="st0" d="M3.77,1.64c0.21,0,0.78,0.58,0.78,0.79C4.55,2.65,4.3,2.83,4.13,2.71C3.89,2.53,3.67,2.32,3.5,2.08
		C3.36,1.91,3.55,1.65,3.77,1.64z"/>
	<path class="st0" d="M7.46,2.74c-0.24,0-0.43-0.26-0.3-0.43c0.18-0.24,0.4-0.44,0.63-0.62c0.06-0.05,0.26,0,0.32,0.07
		c0.07,0.07,0.11,0.27,0.06,0.33C7.99,2.31,7.76,2.51,7.55,2.71C7.52,2.74,7.48,2.74,7.46,2.74z"/>
</g>
</svg>
