<?xml version="1.0" encoding="utf-8"?>
<!-- Generator: Adobe Illustrator 24.0.0, SVG Export Plug-In . SVG Version: 6.00 Build 0)  -->
<svg version="1.1" id="Layer_1" xmlns="http://www.w3.org/2000/svg" xmlns:xlink="http://www.w3.org/1999/xlink" x="0px" y="0px"
	 viewBox="0 0 117.31 117.64" style="enable-background:new 0 0 117.31 117.64;" xml:space="preserve">
<style type="text/css">
	.st0{fill:#FFFFFF;}
	.st1{fill:#E6E7E8;}
	.st2{fill:#B8CA38;}
	.st3{fill:#231F20;}
</style>
<g>
	<path class="st0" d="M531.86-59.33h-514c-13.81,0-25-11.19-25-25v-74h539c13.81,0,25,11.19,25,25v49
		C556.86-70.53,545.67-59.33,531.86-59.33z"/>
</g>
<g>
	<text transform="matrix(1 0 0 1 137.6745 -108.8333)" class="st2" style="font-family:'Montserrat-Bold'; font-size:52.0603px;">123 puntos</text>
</g>
<path class="st0" d="M285.31-12.92c-32.24,0-58.38,26.14-58.38,58.38s26.14,58.38,58.38,58.38s58.38-26.14,58.38-58.38
	S317.55-12.92,285.31-12.92z M285.31,96.84c-28.37,0-51.38-23-51.38-51.38s23-51.38,51.38-51.38s51.38,23,51.38,51.38
	S313.68,96.84,285.31,96.84z"/>
<g>
	<path class="st0" d="M39.92,87.56h39.46v-34.2H39.92V87.56z M74.12,59.93v21.05H45.18V59.93H74.12z"/>
	<path class="st1" d="M39.92,48.09h39.46v5.26H39.92V48.09z"/>
	<path class="st0" d="M39.92,42.83h39.46v5.26H39.92V42.83z"/>
	<path class="st2" d="M74.12,80.98V59.93H45.18v21.05H74.12z M59.65,65.19c0,0,3.95,4.4,3.95,6.58c0,2.18-1.77,3.95-3.95,3.95
		s-3.95-1.77-3.95-3.95C55.71,69.59,59.65,65.19,59.65,65.19z"/>
	<path class="st0" d="M59.65,75.72c2.18,0,3.95-1.77,3.95-3.95c0-2.18-3.95-6.58-3.95-6.58s-3.95,4.4-3.95,6.58
		C55.71,73.95,57.47,75.72,59.65,75.72z"/>
	<g>
		<path class="st3" d="M59.65,25.88c-13.8,0.02-24.98,5.78-24.99,19.58v7.89c0,0.73,0.59,1.32,1.32,1.32h2.63v32.89
			c0,0.73,0.59,1.32,1.32,1.32h39.46c0.73,0,1.32-0.59,1.32-1.32V54.67h2.63c0.73,0,1.32-0.59,1.32-1.32v-7.89
			C84.63,31.67,73.45,25.9,59.65,25.88z M78.07,86.24H41.24V54.67h36.83V86.24z M78.07,46.78H41.24v-2.63h36.83V46.78z M41.24,49.41
			h36.83v2.63H41.24V49.41z M82.02,52.04H80.7v-9.21c0-0.73-0.59-1.32-1.32-1.32H39.92c-0.73,0-1.32,0.59-1.32,1.32v9.21h-1.32
			v-6.58c0-12.35,10.01-16.95,22.36-16.95s22.36,4.6,22.36,16.95V52.04z"/>
		<path class="st3" d="M45.18,82.29h28.94c0.73,0,1.32-0.59,1.32-1.32V59.93c0-0.73-0.59-1.32-1.32-1.32H45.18
			c-0.73,0-1.32,0.59-1.32,1.32v21.05C43.87,81.71,44.46,82.29,45.18,82.29z M46.5,61.25h26.31v18.42H46.5V61.25z"/>
		<path class="st3" d="M58.68,64.32c-0.72,0.8-4.28,4.9-4.28,7.46c0,2.91,2.36,5.26,5.26,5.26s5.26-2.36,5.26-5.26
			c0-2.55-3.57-6.66-4.28-7.46c-0.52-0.54-1.38-0.56-1.92-0.04C58.7,64.29,58.69,64.3,58.68,64.32L58.68,64.32z M59.65,74.4
			c-1.45,0-2.63-1.18-2.63-2.63c0-0.84,1.24-2.8,2.63-4.54c1.4,1.75,2.63,3.73,2.63,4.54C62.28,73.22,61.11,74.4,59.65,74.4z"/>
	</g>
</g>
</svg>
