<svg xmlns="http://www.w3.org/2000/svg" viewBox="0 0 65 65"><defs><style>.cls-1{fill:#085cb7;}.cls-2{fill:#fff;}</style></defs><g id="base"><path class="cls-1" d="M32.5,0A32.5,32.5,0,1,0,65,32.5,32.5,32.5,0,0,0,32.5,0Zm0,64A31.5,31.5,0,1,1,64,32.5,31.5,31.5,0,0,1,32.5,64Z"/><circle class="cls-1" cx="32.5" cy="32.5" r="28.5"/></g><g id="icon"><path class="cls-2" d="M28.73,33,28,31.22h-.14a7.69,7.69,0,1,1,7.68-7.69,7.58,7.58,0,0,1-1,3.87,2.88,2.88,0,0,1,1.7.75,9.38,9.38,0,0,0,1.2-4.62,9.54,9.54,0,1,0-9.53,9.54C28.17,33.08,28.45,33.06,28.73,33Z"/><path class="cls-2" d="M32.7,27.57a6.28,6.28,0,1,0-5.22,2.23c-.26-.7-.53-1.38-.76-2a4.42,4.42,0,1,1,5.16-2.36C32.13,26.09,32.42,26.83,32.7,27.57Z"/><path class="cls-2" d="M47.64,46.28,46.35,42.8a5.14,5.14,0,0,1,.43-.91,4.44,4.44,0,0,0,.44-.94c.51-2.22-1.33-5.34-2.12-7.27l-.24-.58L44,30.79a3.15,3.15,0,0,0-.37-.67,1.85,1.85,0,0,0-.59-.59,1.75,1.75,0,0,0-.49-.25,1.61,1.61,0,0,0-1.06.06l-.1,0a1.77,1.77,0,0,0-1.17,1.21c-.08-.21-.15-.43-.24-.61a1.74,1.74,0,0,0-.81-.91,1.84,1.84,0,0,0-1.68-.19,1.88,1.88,0,0,0-1.14,1.3l-.14-.35a2.05,2.05,0,0,0-.31-.56,1.85,1.85,0,0,0-3.38.53c-.82-2.2-2.19-5.67-2.27-5.9a1.86,1.86,0,0,0-3.47,1.32c.06.15,4.56,10.35,4.56,10.35a10,10,0,0,1,.74,2.56l0,0a34.91,34.91,0,0,0-3.39-2,2,2,0,0,0-1.79-.1A1.77,1.77,0,0,0,25.79,37a1.43,1.43,0,0,0-.13.4,1.57,1.57,0,0,0,.12.82s0,0,0,0a1.63,1.63,0,0,0,.25.45,9.21,9.21,0,0,0,1.6,1.66l.08.07a41.4,41.4,0,0,0,8.21,5.7c.75.39,1.65,2.73,2,3.51L38,50l9.61-3.67Z"/></g></svg>