<svg xmlns="http://www.w3.org/2000/svg" viewBox="0 0 65 65"><defs><style>.cls-1{fill:#085cb7;}.cls-2{fill:#fff;}</style></defs><g id="base"><path class="cls-1" d="M32.5,0A32.5,32.5,0,1,0,65,32.5,32.5,32.5,0,0,0,32.5,0Zm0,64A31.5,31.5,0,1,1,64,32.5,31.5,31.5,0,0,1,32.5,64Z"/><circle class="cls-1" cx="32.5" cy="32.5" r="28.5"/></g><g id="Layer_3" data-name="Layer 3"><path class="cls-2" d="M19.76,14.14V48.55H46v-27H39.42a.8.8,0,0,1-.79-.79V14.14Zm20.46,0v5.72h5.72ZM23.75,24.34h9.9a.92.92,0,0,1,.86.8c.06.43-.37.8-.8.86H23.88a.83.83,0,0,1-.86-.8A.81.81,0,0,1,23.75,24.34Zm0,4.55H41.82a.83.83,0,0,1,.06,1.66H23.82a.83.83,0,1,1-.07-1.66Zm0,4.49H41.82a.91.91,0,0,1,.86.79c.06.43-.37.8-.8.86H23.82a.83.83,0,1,1-.07-1.65Zm0,4.48H41.82a.92.92,0,0,1,.86.8c.06.43-.37.8-.8.86H23.82a.83.83,0,0,1-.87-.8A.87.87,0,0,1,23.75,37.86Zm0,4.55H41.82a.83.83,0,1,1,.06,1.66H23.82a.83.83,0,1,1-.07-1.66Z"/></g></svg>