<svg xmlns="http://www.w3.org/2000/svg" viewBox="0 0 65 65"><defs><style>.cls-1{fill:#085cb7;}.cls-2{fill:#fff;}</style></defs><g id="base"><path class="cls-1" d="M32.5,0A32.5,32.5,0,1,0,65,32.5,32.5,32.5,0,0,0,32.5,0Zm0,64A31.5,31.5,0,1,1,64,32.5,31.5,31.5,0,0,1,32.5,64Z"/><circle class="cls-1" cx="32.5" cy="32.5" r="28.5"/></g><g id="Layer_3" data-name="Layer 3"><path class="cls-2" d="M24.29,14.55,18,21h6.29Zm1.56,0v7.31a.84.84,0,0,1-.81.83H18v25.9H43.15V41.86L41.72,43h0L40.17,44.1a.75.75,0,0,1-.88,0,.9.9,0,0,1-.37-.83l.31-1.93L40,36.15a2.15,2.15,0,0,1,.25-.7l2.86-5.13V14.49l-17.24.06ZM28.21,21h0a.75.75,0,0,1,.75.51.79.79,0,0,1-.19.9L24,27.24a.77.77,0,0,1-1.12,0l-2.37-2.43a.84.84,0,0,1,0-1.16.77.77,0,0,1,1.12,0l1.81,1.86,4.17-4.29a1.69,1.69,0,0,1,.44-.26Zm2.24,3.66H40a.83.83,0,0,1,0,1.66h-9.4a.78.78,0,0,1-.81-.77A.83.83,0,0,1,30.45,24.62Zm17,1.21L46.27,28,49.82,30,51,27.88ZM28.21,29h0a.75.75,0,0,1,.75.51.8.8,0,0,1-.19.9L24,35.32a.77.77,0,0,1-1.12,0l-2.37-2.44a.83.83,0,0,1,0-1.15.77.77,0,0,1,1.12,0l1.81,1.86,4.17-4.3a1.64,1.64,0,0,1,.44-.25Zm17.25.32-3.55,6.28,3.55,2h0L49,31.35l-3.55-2Zm-15,3.4h8.78a.83.83,0,0,1,0,1.66H30.58a.78.78,0,0,1-.81-.77A.76.76,0,0,1,30.45,32.76Zm-2.24,4.42h0a.75.75,0,0,1,.75.51.91.91,0,0,1-.19.9L24,43.46a.77.77,0,0,1-1.12,0L20.55,41a.83.83,0,0,1,0-1.15.77.77,0,0,1,1.12,0l1.81,1.86,4.17-4.3a1.64,1.64,0,0,1,.44-.25Zm13.26.06-.68,4.42L44.4,39Zm-11,3.59h6.79a.84.84,0,0,1,0,1.67H30.58a.78.78,0,0,1-.81-.77A.8.8,0,0,1,30.45,40.83Z"/></g></svg>