<svg id="Layer_1" data-name="Layer 1" xmlns="http://www.w3.org/2000/svg" viewBox="0 0 37 37"><defs><style>.cls-1{fill:#6abf4c;}.cls-2{fill:#fff;}</style></defs><g id="Grupo_50" data-name="Grupo 50"><circle id="Elipse_5-2" data-name="Elipse 5-2" class="cls-1" cx="18.5" cy="18.5" r="18.5"/><path id="ic_thumb_up_24px" data-name="ic thumb up 24px" class="cls-2" d="M950.94,548.09h3.36V538h-3.36Zm18.5-9.25a1.68,1.68,0,0,0-1.68-1.68h-5.31l.8-3.84,0-.27a1.26,1.26,0,0,0-.37-.89l-.89-.88-5.53,5.54A1.66,1.66,0,0,0,956,538v8.41a1.68,1.68,0,0,0,1.68,1.68h7.58a1.67,1.67,0,0,0,1.55-1l2.54-5.93a1.62,1.62,0,0,0,.12-.61v-1.61h0Z" transform="translate(-941.6 -521.18)"/></g></svg>