<?xml version="1.0" encoding="utf-8"?>
<!-- Generator: Adobe Illustrator 25.0.1, SVG Export Plug-In . SVG Version: 6.00 Build 0)  -->
<svg version="1.1" id="Layer_1" xmlns="http://www.w3.org/2000/svg" xmlns:xlink="http://www.w3.org/1999/xlink" x="0px" y="0px"
	 viewBox="0 0 1920 1080" style="enable-background:new 0 0 1920 1080;" xml:space="preserve">
<style type="text/css">
	.st0{fill:#6ABF4C;}
	.st1{fill:#FFFFFF;}
</style>
<g id="Grupo_50" transform="translate(9.091 9)">
	<g transform="matrix(1, 0, 0, 1, -9.09, -9)">
		<circle id="Elipse_5-2" class="st0" cx="960.1" cy="539.68" r="18.5"/>
	</g>
	<path id="ic_thumb_up_24px" class="st1" d="M941.85,539.09h3.36V529h-3.36V539.09z M960.35,529.84c0-0.93-0.75-1.68-1.68-1.68
		h-5.31l0.8-3.84l0.03-0.27c0-0.33-0.13-0.65-0.37-0.89l-0.89-0.88l-5.53,5.54c-0.32,0.31-0.5,0.74-0.5,1.19v8.41
		c0,0.93,0.75,1.68,1.68,1.68h7.58c0.68,0,1.29-0.4,1.55-1.03l2.54-5.93c0.08-0.2,0.12-0.4,0.12-0.61v-1.61l-0.01-0.01
		L960.35,529.84z"/>
</g>
</svg>
