<?xml version="1.0" encoding="utf-8"?>
<!-- Generator: Adobe Illustrator 24.0.0, SVG Export Plug-In . SVG Version: 6.00 Build 0)  -->
<svg version="1.1" id="Capa_1" xmlns="http://www.w3.org/2000/svg" xmlns:xlink="http://www.w3.org/1999/xlink" x="0px" y="0px"
	 viewBox="0 0 51 51" style="enable-background:new 0 0 51 51;" xml:space="preserve">
<style type="text/css">
	.st0{fill:#C2D100;}
</style>
<g>
	<g>
		<path class="st0" d="M40.3,5.2c1.8,0,3.7,0,5.5,0c3.2,0.1,5.5,2.4,5.5,5.5c0,11.6,0,23.2,0,34.8c0,3.2-2.3,5.5-5.6,5.6
			c-13.4,0-26.8,0-40.2,0c-3.3,0-5.6-2.3-5.6-5.6c0-11.5,0-23.1,0-34.6c0-3.3,2.3-5.6,5.6-5.6c1.8,0,3.6,0,5.4,0l0,0
			c0,0.7,0,1.4,0,2.1c0,1.7,0,3.5,0,5.2c0,0.9,0.5,1.5,1.3,1.8c0.8,0.3,1.5-0.1,2-0.8c0.2-0.4,0.3-0.9,0.3-1.4c0-2.3,0-4.6,0-7l0,0
			c7.4,0,14.7,0,22.1,0l0,0c0,0.7,0,1.4,0,2.1c0,1.7,0,3.5,0,5.2c0,0.9,0.5,1.5,1.3,1.8c0.8,0.3,1.5-0.1,2-0.8
			c0.2-0.4,0.3-0.9,0.3-1.4C40.4,9.9,40.3,7.5,40.3,5.2L40.3,5.2z M3.6,21.8c0,0.4,0,0.7,0,1c0,7.4,0,14.7,0,22.1
			c0,2,0.6,2.6,2.6,2.6c13,0,26,0,39,0c1.9,0,2.5-0.6,2.5-2.5c0-7.4,0-14.8,0-22.2c0-0.3,0-0.6,0-0.9C33,21.8,18.4,21.8,3.6,21.8z"
			/>
		<path class="st0" d="M11,5.2c0-1.2,0-2.4,0-3.6c0-1.2,0.8-2,1.8-2c1,0,1.8,0.8,1.8,2c0,1.2,0,2.4,0,3.6l0,0
			C13.4,5.2,12.2,5.2,11,5.2L11,5.2z"/>
		<path class="st0" d="M36.7,5.2c0-1.2,0-2.3,0-3.5c0-1.2,0.7-2,1.8-2c1.1,0,1.9,0.8,1.9,2c0,1.2,0,2.3,0,3.5l0,0
			C39.1,5.2,37.9,5.2,36.7,5.2L36.7,5.2z"/>
		<path class="st0" d="M22,39.3c0.3-0.3,0.5-0.5,0.8-0.7c4.1-4.1,8.2-8.2,12.4-12.3c1-1,2-1.1,2.8-0.3c0.7,0.7,0.8,1.5,0.2,2.3
			c-0.2,0.3-0.4,0.5-0.7,0.8c-4.6,4.6-9.1,9.1-13.7,13.7c-1.4,1.4-2.2,1.4-3.6,0c-2.2-2.2-4.4-4.4-6.6-6.6c-1.1-1.1-1-2.4,0.2-3.1
			c0.8-0.5,1.5-0.3,2.4,0.5c1.7,1.7,3.4,3.4,5.1,5.1C21.5,38.9,21.7,39.1,22,39.3z"/>
	</g>
</g>
</svg>
