<?xml version="1.0" encoding="utf-8"?>
<!-- Generator: Adobe Illustrator 24.0.0, SVG Export Plug-In . SVG Version: 6.00 Build 0)  -->
<svg version="1.1" id="Layer_1" xmlns="http://www.w3.org/2000/svg" xmlns:xlink="http://www.w3.org/1999/xlink" x="0px" y="0px"
	 viewBox="0 0 196.08 196.08" style="enable-background:new 0 0 196.08 196.08;" xml:space="preserve">
<style type="text/css">
	.st0{fill:none;stroke:#FFFFFF;stroke-width:1.68;stroke-linecap:round;stroke-linejoin:round;stroke-miterlimit:10;}
</style>
<g>
	<text transform="matrix(1 0 0 1 -204.9522 970.1785)" style="fill:#F7A123; font-family:'Montserrat-Bold'; font-size:15.4496px;">4. Recibe</text>
</g>
<rect x="-211.66" y="980.65" style="fill:none;" width="93.07" height="22.07"/>
<text transform="matrix(1 0 0 1 -198.8785 986.1755)"><tspan x="0" y="0" style="fill:#606060; font-family:'Montserrat-Medium'; font-size:7.7867px;">Recibe tu producto y </tspan><tspan x="18.32" y="9.34" style="fill:#606060; font-family:'Montserrat-Medium'; font-size:7.7867px;">disfrútalo</tspan></text>
<path class="st0" d="M108.87,155.16l-35.02-26.26l35.02-26.26v8.75h8.75c19.34,0,35.02-15.68,35.02-35.02v35.02
	c0,19.34-15.68,35.02-35.02,35.02h-8.75V155.16z"/>
<path class="st0" d="M44.98,124.2c-1.51-41.23-1.48-71.75,43.77-70.04V45.4l35.02,26.26L88.75,97.93v-8.75
	C64.41,86.7,45.67,101.01,44.98,124.2z"/>
</svg>
