<svg id="Layer_1" data-name="Layer 1" xmlns="http://www.w3.org/2000/svg" viewBox="0 0 37 37"><defs><style>.cls-1{fill:#085cb7;}.cls-2{fill:#fff;}</style></defs><circle id="Elipse_5-2" data-name="Elipse 5-2" class="cls-1" cx="18.5" cy="18.5" r="18.5"/><path id="ic_attachment_24px" data-name="ic attachment 24px" class="cls-2" d="M8.5,18.5A5.5,5.5,0,0,1,14,13H24.5a4,4,0,0,1,0,8H16a2.5,2.5,0,0,1,0-5h7.5v2H15.91c-.55,0-.55,1,0,1H24.5a2,2,0,0,0,0-4H14a3.5,3.5,0,0,0,0,7h9.5v2H14A5.5,5.5,0,0,1,8.5,18.5Z"/></svg>