<?xml version="1.0" encoding="utf-8"?>
<!-- Generator: Adobe Illustrator 25.0.1, SVG Export Plug-In . SVG Version: 6.00 Build 0)  -->
<svg version="1.1" id="Layer_1" xmlns="http://www.w3.org/2000/svg" xmlns:xlink="http://www.w3.org/1999/xlink" x="0px" y="0px"
	 viewBox="0 0 1920 1080" style="enable-background:new 0 0 1920 1080;" xml:space="preserve">
<style type="text/css">
	.st0{fill:#FFFFFF;}
</style>
<path id="ic_attachment_24px" class="st0" d="M950.1,539.68c0-3.04,2.46-5.5,5.5-5.5h10.5c2.21,0,4,1.79,4,4c0,2.21-1.79,4-4,4h-8.5
	c-1.38,0-2.5-1.12-2.5-2.5c0-1.38,1.12-2.5,2.5-2.5h7.5v2h-7.59c-0.55,0-0.55,1,0,1h8.59c1.1,0,2-0.9,2-2s-0.9-2-2-2h-10.5
	c-1.93,0-3.5,1.57-3.5,3.5s1.57,3.5,3.5,3.5h9.5v2h-9.5C952.56,545.18,950.1,542.71,950.1,539.68z"/>
</svg>
