<?xml version="1.0" encoding="utf-8"?>
<!-- Generator: Adobe Illustrator 24.0.0, SVG Export Plug-In . SVG Version: 6.00 Build 0)  -->
<svg version="1.1" id="Capa_1" xmlns="http://www.w3.org/2000/svg" xmlns:xlink="http://www.w3.org/1999/xlink" x="0px" y="0px"
	 viewBox="0 0 144 116" style="enable-background:new 0 0 144 116;" xml:space="preserve">
<style type="text/css">
	.st0{fill:#FFFFFF;}
</style>
<g>
	<path class="st0" d="M137.41-0.1H7.38C3.54-0.09,0.42,3.02,0.42,6.87v78.95c0.01,3.85,3.12,6.96,6.97,6.97h48l-3.31,11.61h-9.86
		c-1.28,0-2.32,1.04-2.32,2.32v4.64H21.31c-1.28,0-2.32,1.04-2.32,2.32c0,1.28,1.04,2.32,2.32,2.32h102.17
		c1.28,0,2.32-1.04,2.32-2.32c0-1.28-1.04-2.32-2.32-2.32H104.9v-4.64c0-1.28-1.04-2.32-2.32-2.32h-9.86l-3.31-11.61h48
		c3.85-0.01,6.96-3.12,6.97-6.97V6.87C144.37,3.02,141.26-0.09,137.41-0.1z M100.26,109.03v2.32H44.53v-2.32H100.26z M56.9,104.39
		l3.31-11.61h24.36l3.31,11.61H56.9z M139.73,85.81c0,1.28-1.04,2.32-2.32,2.32H7.38c-1.28,0-2.32-1.04-2.32-2.32v-4.64h134.67
		V85.81z M139.73,76.53H5.06V6.87c0-1.28,1.04-2.32,2.32-2.32h130.03c1.28,0,2.32,1.04,2.32,2.32V76.53z"/>
	<path class="st0" d="M109.55,42.1V30.09c0-0.9-0.52-1.72-1.34-2.1L73.38,11.73c-0.62-0.29-1.34-0.29-1.96,0L36.59,27.98
		c-1.16,0.54-1.66,1.92-1.12,3.09c0.23,0.49,0.63,0.89,1.12,1.12l12.59,5.87v26.85c0,1.28,1.04,2.32,2.32,2.32h41.8
		c1.28,0,2.32-1.04,2.32-2.32V38.07l9.29-4.33v8.36c-3.63,1.28-5.53,5.26-4.25,8.89c1.28,3.63,5.26,5.53,8.89,4.25
		s5.53-5.26,4.25-8.89C113.09,44.36,111.53,42.8,109.55,42.1z M90.97,62.59H53.82V40.23l17.59,8.21c0.62,0.29,1.34,0.29,1.96,0
		l17.59-8.21V62.59z M72.4,43.78L43.06,30.09L72.4,16.4l29.34,13.69L72.4,43.78z M107.23,50.98c-1.28,0-2.32-1.04-2.32-2.32
		c0-1.28,1.04-2.32,2.32-2.32c1.28,0,2.32,1.04,2.32,2.32C109.55,49.94,108.51,50.98,107.23,50.98z"/>
</g>
</svg>
