<svg id="Layer_1" data-name="Layer 1" xmlns="http://www.w3.org/2000/svg" viewBox="0 0 37 37"><defs><style>.cls-1{fill:#db1b1d;}.cls-2{fill:#fff;}</style></defs><g id="Grupo_49" data-name="Grupo 49"><circle id="Elipse_1-2" data-name="Elipse 1-2" class="cls-1" cx="18.5" cy="18.5" r="18.5"/><path id="ic_thumb_down_24px" data-name="ic thumb down 24px" class="cls-2" d="M962.62,531.27h-7.57a1.66,1.66,0,0,0-1.54,1L951,538.23a1.62,1.62,0,0,0-.12.61v1.61h0v.07a1.68,1.68,0,0,0,1.68,1.68h5.31l-.8,3.84,0,.27a1.26,1.26,0,0,0,.37.89l.89.88,5.54-5.54a1.69,1.69,0,0,0,.49-1.19V533A1.68,1.68,0,0,0,962.62,531.27Zm3.36,0v10.09h3.36V531.27Z" transform="translate(-941.6 -521.18)"/></g></svg>