<?xml version="1.0" encoding="utf-8"?>
<!-- Generator: Adobe Illustrator 25.0.1, SVG Export Plug-In . SVG Version: 6.00 Build 0)  -->
<svg version="1.1" id="Layer_1" xmlns="http://www.w3.org/2000/svg" xmlns:xlink="http://www.w3.org/1999/xlink" x="0px" y="0px"
	 viewBox="0 0 1920 1080" style="enable-background:new 0 0 1920 1080;" xml:space="preserve">
<style type="text/css">
	.st0{fill:#DB1B1D;}
	.st1{fill:#FFFFFF;}
</style>
<g id="Grupo_49" transform="translate(9 9)">
	<g transform="matrix(1, 0, 0, 1, -9, -9)">
		<circle id="Elipse_1-2" class="st0" cx="960.1" cy="539.68" r="18.5"/>
	</g>
	<path id="ic_thumb_down_24px" class="st1" d="M953.62,522.27h-7.57c-0.67,0-1.28,0.4-1.54,1.03l-2.54,5.93
		c-0.08,0.2-0.12,0.4-0.12,0.61v1.61l0.01,0.01l-0.01,0.07c0,0.93,0.75,1.68,1.68,1.68h5.31l-0.8,3.84l-0.03,0.27
		c0,0.33,0.13,0.65,0.37,0.89l0.89,0.88l5.54-5.54c0.31-0.31,0.49-0.74,0.49-1.19v-8.41C955.3,523.02,954.55,522.27,953.62,522.27z
		 M956.98,522.27v10.09h3.36v-10.09H956.98z"/>
</g>
</svg>
