<?xml version="1.0" encoding="utf-8"?>
<!-- Generator: Adobe Illustrator 24.0.0, SVG Export Plug-In . SVG Version: 6.00 Build 0)  -->
<svg version="1.1" id="Capa_1" xmlns="http://www.w3.org/2000/svg" xmlns:xlink="http://www.w3.org/1999/xlink" x="0px" y="0px"
	 viewBox="0 0 117 116" style="enable-background:new 0 0 117 116;" xml:space="preserve">
<style type="text/css">
	.st0{fill:#005CB9;}
</style>
<g>
	<path class="st0" d="M107.9,72.64c-1.61,0-2.91,1.3-2.91,2.91v25.88c-0.01,4.83-3.92,8.74-8.74,8.74H14.47
		c-4.83,0-8.74-3.92-8.74-8.74V25.48c0.01-4.83,3.92-8.74,8.74-8.74h25.88c1.61,0,2.91-1.3,2.91-2.91c0-1.61-1.3-2.91-2.91-2.91
		H14.47C6.43,10.92-0.09,17.44-0.1,25.48v75.94c0.01,8.04,6.53,14.56,14.57,14.57h81.77c8.04-0.01,14.56-6.53,14.57-14.57V75.55
		C110.81,73.94,109.51,72.64,107.9,72.64z"/>
	<path class="st0" d="M109.66,3.41c-5.12-5.12-13.43-5.12-18.55,0L39.12,55.41c-0.36,0.36-0.61,0.8-0.75,1.28l-6.84,24.68
		c-0.28,1.01,0,2.1,0.75,2.84c0.74,0.74,1.83,1.03,2.84,0.75l24.68-6.84c0.48-0.13,0.93-0.39,1.28-0.75l51.99-51.99
		c5.11-5.13,5.11-13.42,0-18.55L109.66,3.41z M45.47,57.3l42.55-42.55l13.72,13.72L59.19,71.02L45.47,57.3z M42.73,62.8l10.96,10.96
		l-15.17,4.2L42.73,62.8z M108.96,21.26l-3.09,3.09L92.14,10.63l3.09-3.09c2.84-2.84,7.46-2.84,10.3,0l3.42,3.42
		C111.8,13.8,111.8,18.41,108.96,21.26z"/>
</g>
</svg>
