<?xml version="1.0" encoding="utf-8"?>
<!-- Generator: Adobe Illustrator 24.0.0, SVG Export Plug-In . SVG Version: 6.00 Build 0)  -->
<svg version="1.1" id="Layer_1" xmlns="http://www.w3.org/2000/svg" xmlns:xlink="http://www.w3.org/1999/xlink" x="0px" y="0px"
	 viewBox="0 0 8.77 16.41" style="enable-background:new 0 0 8.77 16.41;" xml:space="preserve">
<style type="text/css">
	.st0{fill:#FFFFFF;}
</style>
<g>
	<path class="st0" d="M5.93,9.27c0,0.14,0,0.24,0,0.34c0,2.09,0,4.19,0,6.28c0,0.44-0.08,0.51-0.52,0.51c-0.83,0-1.66,0-2.49,0
		c-0.34,0-0.44-0.1-0.44-0.44c0-2.12,0-4.24,0-6.36c0-0.1,0-0.2,0-0.33c-0.24,0-0.46,0-0.68,0c-0.47,0-0.94,0-1.41,0
		c-0.24,0-0.38-0.11-0.38-0.35C0,8.03,0,7.13,0.01,6.23c0-0.24,0.17-0.34,0.4-0.34c0.59,0,1.18,0,1.77,0c0.09,0,0.18,0,0.31,0
		c0-0.15,0-0.27,0-0.4c0.03-0.85-0.01-1.71,0.13-2.55c0.25-1.57,1.51-2.74,3.1-2.89C6.64-0.02,7.58,0.01,8.52,0
		c0.22,0,0.34,0.13,0.34,0.33c0.01,0.84,0.01,1.67,0,2.51c0,0.22-0.15,0.33-0.37,0.33c-0.5,0-0.99,0-1.49,0
		c-0.76,0-1.07,0.32-1.08,1.08c0,0.54,0,1.07,0,1.64c0.11,0,0.2,0,0.3,0c0.7,0,1.4,0,2.1,0c0.33,0,0.45,0.1,0.45,0.42
		c0,0.85,0,1.69,0,2.54c0,0.31-0.12,0.42-0.45,0.42C7.54,9.27,6.75,9.27,5.93,9.27z"/>
</g>
</svg>
