<?xml version="1.0" encoding="utf-8"?>
<!-- Generator: Adobe Illustrator 24.0.0, SVG Export Plug-In . SVG Version: 6.00 Build 0)  -->
<svg version="1.1" id="Layer_1" xmlns="http://www.w3.org/2000/svg" xmlns:xlink="http://www.w3.org/1999/xlink" x="0px" y="0px"
	 viewBox="0 0 196.08 196.08" style="enable-background:new 0 0 196.08 196.08;" xml:space="preserve">
<style type="text/css">
	.st0{fill:#FFFFFF;}
</style>
<g>
	<path class="st0" d="M40.89,87.65c-1.41,1.79-2.18,4.03-2.18,6.31c0,2.54,0.94,4.97,2.63,6.85l17.51,19.4
		c2.25,2.49,5.32,4.09,8.64,4.52l52.76,6.72l16.83,10.76c0.29,0.19,0.63,0.29,0.98,0.29c0.14,0,0.29-0.02,0.43-0.05
		c0.48-0.12,0.89-0.43,1.14-0.86l22.53-39.17c0.48-0.84,0.22-1.91-0.59-2.43l-17.11-10.94l-9.56-7.35
		c-0.79-0.61-1.93-0.46-2.54,0.33c-0.61,0.79-0.46,1.93,0.33,2.54l8.37,6.43l-19.58,34.04l-1.55,2.7l-51.97-6.62
		c-2.47-0.31-4.74-1.5-6.41-3.35l-17.51-19.4c-1.1-1.21-1.7-2.78-1.7-4.42c0-1.49,0.49-2.9,1.41-4.07c2.06-2.62,5.76-3.29,8.6-1.57
		l19.2,11.64c0.35,0.21,0.76,0.3,1.16,0.25l36.99-4.62c0.74-0.09,1.35-0.63,1.53-1.35c0.18-0.72-0.09-1.48-0.7-1.92l-13.8-9.89
		c-1.72-1.23-2.75-3.23-2.75-5.35c0-0.44,0.04-0.88,0.13-1.32c0.72-3.51,4.05-5.78,7.58-5.17l2.17,0.38
		c8.33,1.45,16.11,4.59,23.11,9.34c0.83,0.56,1.96,0.35,2.52-0.48c0.56-0.83,0.35-1.96-0.48-2.52c-7.43-5.04-15.68-8.37-24.52-9.91
		l-2.17-0.38c-5.48-0.95-10.64,2.57-11.75,8.02c-0.14,0.67-0.21,1.36-0.21,2.04c0,3.29,1.59,6.39,4.26,8.3l10.03,7.19l-7.19,0.9
		L76.28,81.18c-3.89-2.35-8.85-1.8-12.14,1.18l-0.72-0.42c-4.22-2.55-9.64-1.7-12.89,1.93C46.96,83.31,43.24,84.66,40.89,87.65
		L40.89,87.65z M91.52,94.21l-5.72,0.71l-18.27-10.6c2.06-1.27,4.73-1.35,6.89-0.04c0.01,0.01,0.02,0.01,0.03,0.02L91.52,94.21z
		 M54.34,85.3c2.1-1.47,4.93-1.63,7.21-0.25c0.01,0.01,0.02,0.01,0.03,0.02l18.27,10.6l-6.98,0.87L54.34,85.3z M123.32,129.1
		l1.17-2.03l19.55-33.99l14.11,9.02l-20.72,36.02L123.32,129.1z"/>
	<path class="st0" d="M128.79,127.34c0,3.04,2.47,5.51,5.51,5.51c3.04,0,5.51-2.47,5.51-5.51c0-3.04-2.47-5.51-5.51-5.51
		C131.26,121.83,128.79,124.3,128.79,127.34z M132.41,127.34c0-1.04,0.85-1.88,1.88-1.88c1.04,0,1.88,0.85,1.88,1.88
		c0,1.04-0.85,1.88-1.88,1.88C133.25,129.22,132.41,128.38,132.41,127.34z"/>
</g>
<g>
	<text transform="matrix(1 0 0 1 -204.9522 970.1785)" style="fill:#F7A123; font-family:'Montserrat-Bold'; font-size:15.4496px;">4. Recibe</text>
</g>
<rect x="-211.66" y="980.65" style="fill:none;" width="93.07" height="22.07"/>
<text transform="matrix(1 0 0 1 -198.8785 986.1755)"><tspan x="0" y="0" style="fill:#606060; font-family:'Montserrat-Medium'; font-size:7.7867px;">Recibe tu producto y </tspan><tspan x="18.32" y="9.34" style="fill:#606060; font-family:'Montserrat-Medium'; font-size:7.7867px;">disfrútalo</tspan></text>
</svg>
