<?xml version="1.0" encoding="utf-8"?>
<!-- Generator: Adobe Illustrator 24.0.0, SVG Export Plug-In . SVG Version: 6.00 Build 0)  -->
<svg version="1.1" id="Layer_1" xmlns="http://www.w3.org/2000/svg" xmlns:xlink="http://www.w3.org/1999/xlink" x="0px" y="0px"
	 viewBox="0 0 16.4 15.65" style="enable-background:new 0 0 16.4 15.65;" xml:space="preserve">
<style type="text/css">
	.st0{fill:#FFFFFF;}
</style>
<g>
	<path class="st0" d="M16.4,15.65c-1.18,0-2.33,0-3.52,0c0-0.11,0-0.21,0-0.31c0-1.89-0.01-3.77-0.02-5.66
		c0-0.27-0.05-0.54-0.12-0.81c-0.39-1.51-2.04-1.51-2.82-0.85C9.41,8.47,9.19,9.04,9.19,9.72c0,1.87,0,3.74,0,5.61
		c0,0.1,0,0.2,0,0.32c-1.18,0-2.33,0-3.5,0c0-3.5,0-7.01,0-10.53c1.17,0,2.31,0,3.49,0c0,0.45,0,0.92,0,1.41
		c0.27-0.29,0.5-0.57,0.75-0.81c0.59-0.57,1.32-0.82,2.13-0.86c0.73-0.04,1.45,0.04,2.12,0.37c1.2,0.57,1.82,1.59,2.06,2.84
		c0.11,0.56,0.15,1.13,0.16,1.7c0.02,1.86,0.01,3.72,0.01,5.58C16.4,15.44,16.4,15.54,16.4,15.65z"/>
	<path class="st0" d="M0.24,15.64c0-3.51,0-7.01,0-10.53c0.07-0.01,0.13-0.02,0.2-0.02c1.02,0,2.05,0,3.07,0
		c0.16,0,0.24,0.03,0.24,0.22c-0.01,3.4,0,6.8,0,10.21c0,0.03-0.01,0.07-0.01,0.12C2.58,15.64,1.42,15.64,0.24,15.64z"/>
	<path class="st0" d="M2.28,3.65C1.22,3.64,0.6,3.38,0.24,2.7c-0.33-0.62-0.34-1.27,0.07-1.87c0.51-0.75,1.26-0.92,2.12-0.8
		c1.34,0.2,1.99,1.74,1.21,2.84C3.3,3.36,2.67,3.65,2.28,3.65z"/>
</g>
</svg>
