<svg id="Layer_1" data-name="Layer 1" xmlns="http://www.w3.org/2000/svg" viewBox="0 0 37 37"><defs><style>.cls-1{fill:#085cb7;}.cls-2{fill:#fff;}</style></defs><circle id="Elipse_5-2" data-name="Elipse 5-2" class="cls-1" cx="18.5" cy="18.5" r="18.5"/><path id="ic_language_24px" data-name="ic language 24px" class="cls-2" d="M18.5,8.5a10,10,0,1,0,10,10A10,10,0,0,0,18.5,8.5Zm6.93,6H22.48a15.73,15.73,0,0,0-1.38-3.56,8.13,8.13,0,0,1,4.31,3.56Zm-6.92-4a14.17,14.17,0,0,1,1.91,4H16.6a14.21,14.21,0,0,1,1.91-4Zm-7.74,10a7.75,7.75,0,0,1,0-4h3.38a14.11,14.11,0,0,0,0,4Zm.82,2h3A15.73,15.73,0,0,0,16,26.06a7.93,7.93,0,0,1-4.38-3.56Zm3-8h-3a8,8,0,0,1,4.33-3.56,16.21,16.21,0,0,0-1.38,3.56Zm4,12a14.17,14.17,0,0,1-1.91-4h3.73a13.91,13.91,0,0,1-1.9,4Zm2.34-6H16.25a12.78,12.78,0,0,1,0-4h4.68A12.78,12.78,0,0,1,20.93,20.5Zm.25,5.56a15.73,15.73,0,0,0,1.38-3.56h2.85a8,8,0,0,1-4.31,3.56ZM23,20.5a14.11,14.11,0,0,0,0-4h3.38a7.75,7.75,0,0,1,0,4Z"/></svg>