<?xml version="1.0" encoding="utf-8"?>
<!-- Generator: Adobe Illustrator 25.0.1, SVG Export Plug-In . SVG Version: 6.00 Build 0)  -->
<svg version="1.1" id="Layer_1" xmlns="http://www.w3.org/2000/svg" xmlns:xlink="http://www.w3.org/1999/xlink" x="0px" y="0px"
	 viewBox="0 0 1920 1080" style="enable-background:new 0 0 1920 1080;" xml:space="preserve">
<style type="text/css">
	.st0{fill:#FFFFFF;}
</style>
<path id="ic_language_24px" class="st0" d="M960.09,529.67c-5.52,0.01-10,4.49-9.99,10.01c0.01,5.52,4.49,10,10.01,9.99
	c5.52-0.01,9.99-4.48,9.99-10c0-5.52-4.48-10-10-10C960.1,529.67,960.09,529.67,960.09,529.67z M967.02,535.67h-2.95
	c-0.31-1.24-0.78-2.43-1.38-3.56C964.51,532.74,966.05,534.01,967.02,535.67z M960.1,531.71c0.84,1.21,1.48,2.55,1.91,3.96h-3.82
	C958.61,534.26,959.26,532.93,960.1,531.71z M952.36,541.67c-0.35-1.31-0.35-2.69,0-4h3.38c-0.09,0.66-0.13,1.33-0.14,2
	c0.01,0.67,0.05,1.34,0.14,2H952.36z M953.18,543.67h2.95c0.31,1.24,0.78,2.43,1.38,3.56C955.68,546.61,954.15,545.35,953.18,543.67
	z M956.13,535.67h-2.95c0.97-1.67,2.5-2.94,4.33-3.56C956.91,533.24,956.44,534.44,956.13,535.67z M960.1,547.63
	c-0.84-1.21-1.48-2.55-1.91-3.96h3.82C961.58,545.09,960.94,546.42,960.1,547.63z M962.44,541.67h-4.68c-0.1-0.66-0.15-1.33-0.16-2
	c0.01-0.67,0.06-1.34,0.16-2h4.68c0.1,0.66,0.15,1.33,0.16,2C962.59,540.34,962.54,541.01,962.44,541.67z M962.69,547.23
	c0.6-1.13,1.07-2.32,1.38-3.56h2.95C966.05,545.34,964.51,546.61,962.69,547.23z M964.46,541.67c0.09-0.66,0.13-1.33,0.14-2
	c-0.01-0.67-0.05-1.34-0.14-2h3.38c0.35,1.31,0.35,2.69,0,4H964.46z"/>
</svg>
