<?xml version="1.0" encoding="utf-8"?>
<!-- Generator: Adobe Illustrator 24.0.0, SVG Export Plug-In . SVG Version: 6.00 Build 0)  -->
<svg version="1.1" id="Layer_1" xmlns="http://www.w3.org/2000/svg" xmlns:xlink="http://www.w3.org/1999/xlink" x="0px" y="0px"
	 viewBox="0 0 196.08 196.08" style="enable-background:new 0 0 196.08 196.08;" xml:space="preserve">
<style type="text/css">
	.st0{fill:#FFFFFF;}
</style>
<g>
	<text transform="matrix(1 0 0 1 -204.9522 970.1785)" style="fill:#F7A123; font-family:'Montserrat-Bold'; font-size:15.4496px;">4. Recibe</text>
</g>
<rect x="-211.66" y="980.65" style="fill:none;" width="93.07" height="22.07"/>
<text transform="matrix(1 0 0 1 -198.8785 986.1755)"><tspan x="0" y="0" style="fill:#606060; font-family:'Montserrat-Medium'; font-size:7.7867px;">Recibe tu producto y </tspan><tspan x="18.32" y="9.34" style="fill:#606060; font-family:'Montserrat-Medium'; font-size:7.7867px;">disfrútalo</tspan></text>
<g>
	<path class="st0" d="M57.82,48.26c-10.12,0-18.36,8.24-18.36,18.36s8.24,18.36,18.36,18.36s18.36-8.24,18.36-18.36
		S67.95,48.26,57.82,48.26z M57.82,81.11c-7.99,0-14.5-6.5-14.5-14.5s6.5-14.5,14.5-14.5s14.5,6.5,14.5,14.5
		S65.82,81.11,57.82,81.11z"/>
	<path class="st0" d="M76.46,84.04c0.35,0.58,0.98,0.94,1.66,0.94h34.79c0.68,0,1.31-0.36,1.66-0.94c0.35-0.58,0.37-1.3,0.05-1.9
		l-17.4-32.86c-0.67-1.26-2.75-1.26-3.42,0l-17.4,32.86C76.09,82.74,76.11,83.47,76.46,84.04z M95.51,54.32l14.18,26.79H81.33
		L95.51,54.32z"/>
	<path class="st0" d="M153.5,48.26h-32.86c-1.07,0-1.93,0.86-1.93,1.93v32.86c0,1.07,0.87,1.93,1.93,1.93h32.86
		c1.07,0,1.93-0.86,1.93-1.93V50.19C155.43,49.12,154.56,48.26,153.5,48.26z M151.56,81.11h-28.99V52.12h28.99V81.11z"/>
	<path class="st0" d="M115.81,117.84c-1.89,0-3.6,0.79-4.83,2.04c-1.23-1.26-2.94-2.04-4.83-2.04s-3.6,0.79-4.83,2.04
		c-1.23-1.26-2.94-2.04-4.83-2.04c-1.04,0-2.02,0.26-2.9,0.68v-17.11c0-3.73-3.03-6.76-6.76-6.76c-3.73,0-6.76,3.03-6.76,6.76v21.43
		L72.88,130c-0.36,0.36-0.57,0.85-0.57,1.37v9.66c0,0.51,0.2,1.01,0.57,1.37l7.16,7.16v12.73c0,1.07,0.87,1.93,1.93,1.93h38.66
		c1.07,0,1.93-0.86,1.93-1.93V124.6C122.57,120.87,119.54,117.84,115.81,117.84z M118.71,160.36H83.92v-11.6
		c0-0.51-0.2-1.01-0.57-1.37l-7.16-7.16v-8.06l3.87-3.87v3.07h3.87v-29.96c0-1.6,1.3-2.9,2.9-2.9c1.6,0,2.9,1.3,2.9,2.9v23.19v2.9
		h3.87v-2.9c0-1.6,1.3-2.9,2.9-2.9c1.6,0,2.9,1.3,2.9,2.9v2.9h3.87v-2.9c0-1.6,1.3-2.9,2.9-2.9c1.6,0,2.9,1.3,2.9,2.9v2.9h3.87v-2.9
		c0-1.6,1.3-2.9,2.9-2.9c1.6,0,2.9,1.3,2.9,2.9V160.36z"/>
</g>
</svg>
