<?xml version="1.0" encoding="utf-8"?>
<!-- Generator: Adobe Illustrator 24.0.0, SVG Export Plug-In . SVG Version: 6.00 Build 0)  -->
<svg version="1.1" id="Capa_1" xmlns="http://www.w3.org/2000/svg" xmlns:xlink="http://www.w3.org/1999/xlink" x="0px" y="0px"
	 viewBox="0 0 158 158" style="enable-background:new 0 0 158 158;" xml:space="preserve">
<style type="text/css">
	.st0{fill:#231F20;}
	.st1{fill:#FF9100;}
	.st2{fill:#4EA3D9;}
	.st3{fill:#FFB64C;}
</style>
<g>
	<path class="st0" d="M63.65,69.28c-0.95-0.62-1.8-1.2-2.67-1.73c-0.42-0.25-0.74-0.56-0.99-0.98c-3.46-5.93-6.93-11.86-10.38-17.79
		c-0.28-0.48-0.5-0.57-1.03-0.34c-2.22,0.96-4.58,0.27-5.91-1.73c-0.7-1.05-1.34-2.15-1.93-3.27c-1.23-2.36-0.43-5.07,1.89-6.44
		c6.04-3.56,12.1-7.11,18.15-10.66c1.53-0.89,3.04-1.8,4.58-2.68c2.5-1.43,5.23-0.73,6.75,1.72c0.58,0.93,1.13,1.87,1.64,2.83
		c1.2,2.24,0.73,4.6-1.24,6.18c-0.47,0.38-0.52,0.63-0.22,1.14c3.47,5.86,6.91,11.74,10.36,17.6c0.31,0.52,0.43,1.06,0.47,1.67
		c0.31,4.71,0.66,9.42,0.98,14.13c0.03,0.48,0.24,0.58,0.66,0.57c3.04-0.02,6.08-0.02,9.12-0.05c0.46-0.01,0.88,0.08,1.27,0.28
		c5.32,2.66,10.64,5.33,15.96,8c0.11,0.05,0.21,0.12,0.31,0.17c0.66,0.31,1.12,0.76,1.12,1.55c0,0.8-0.51,1.21-1.15,1.53
		c-2.79,1.39-5.59,2.78-8.38,4.18c-2.61,1.31-5.21,2.61-7.81,3.94c-0.38,0.2-0.77,0.27-1.19,0.26c-2.15-0.01-4.31,0.03-6.46-0.04
		c-0.85-0.03-1.02,0.27-1.01,1.05c0.02,3.78-1.95,6.52-5.37,7.51c-0.83,0.24-1.68,0.29-2.54,0.29c-2.89,0-5.79,0.02-8.68-0.01
		c-0.64-0.01-0.88,0.12-0.86,0.82c0.05,1.65,0.03,3.31,0.01,4.96c-0.01,0.44,0.12,0.79,0.39,1.13c0.57,0.75,1.12,1.52,1.65,2.3
		c0.59,0.87,0.47,1.72-0.27,2.26c-0.72,0.52-1.59,0.33-2.23-0.5c-0.04-0.05-0.06-0.1-0.1-0.14c-2.38-2.28-2.89-5.11-2.56-8.25
		c0.09-0.8,0.36-1.87-0.13-2.39c-0.5-0.53-1.56-0.15-2.38-0.17c-1.5-0.03-3.01,0.01-4.52-0.02c-0.54-0.01-0.83,0.12-1,0.71
		c-1.98,6.97-4,13.93-6.01,20.89c-0.33,1.13-0.78,1.48-1.97,1.48c-5.4,0-10.8,0-16.21,0c-1.57,0-2.19-0.84-1.76-2.34
		c2.74-9.51,5.47-19.03,8.21-28.54c0.29-1,0.27-1.02-0.79-1.02c-1.15,0-2.3,0.02-3.45-0.01c-1.16-0.02-1.71-0.6-1.73-1.76
		c-0.01-0.74-0.02-1.48,0.01-2.21c0.02-0.47-0.08-0.7-0.62-0.68c-1.03,0.04-2.07,0.03-3.1,0c-0.53-0.02-0.65,0.21-0.63,0.68
		c0.03,0.8,0.03,1.59,0,2.39c-0.04,0.97-0.58,1.56-1.55,1.57c-2.36,0.03-4.72,0.03-7.08,0c-0.99-0.01-1.54-0.65-1.55-1.66
		c-0.01-5.49-0.01-10.98,0-16.47c0-0.99,0.57-1.65,1.56-1.66c2.36-0.04,4.72-0.05,7.08,0c0.99,0.02,1.51,0.66,1.54,1.69
		c0.02,0.77,0.02,1.54,0,2.3c-0.01,0.47,0.12,0.71,0.64,0.69c1.03-0.03,2.07-0.03,3.1,0c0.47,0.01,0.62-0.17,0.61-0.62
		c-0.03-0.77-0.01-1.53,0-2.3c0.02-1.15,0.58-1.73,1.73-1.79c0.29-0.01,0.59,0,0.89,0c8.53,0,17.06,0,25.59-0.01
		C62.81,69.49,63.17,69.59,63.65,69.28z M104.61,80.86c0.86-0.24,1.58-0.76,2.39-1.11c0.14-0.06,0.38-0.11,0.35-0.33
		c-0.02-0.19-0.23-0.24-0.39-0.32c-0.87-0.43-1.73-0.87-2.6-1.3c-2.57-1.29-5.15-2.57-7.72-3.87c-0.52-0.26-0.77-0.24-0.73,0.41
		c0.05,0.73-0.1,1.47,0.09,2.19c-0.18,2.74-0.05,5.48-0.08,8.21c-0.01,0.4,0.19,0.43,0.51,0.27
		C99.15,83.62,101.94,82.37,104.61,80.86z M26.78,75.21c0.02-0.29,0.06-0.58,0.07-0.87c0.01-1.75,0.01-1.75-1.75-1.75
		c-2.52,0-2.52,0-2.2,2.62c-0.16,3.5-0.03,7.01-0.07,10.51c-0.01,0.41,0.17,0.58,0.59,0.57c0.94-0.02,1.89-0.01,2.83,0
		c0.39,0,0.61-0.13,0.61-0.56C26.81,82.22,26.8,78.71,26.78,75.21z M83.32,91.75c0.21-0.45,0.09-0.93,0.15-1.39
		c0.1-0.79-0.16-1.05-1-1.05c-5.18,0.04-10.36,0.02-15.54,0.02c-1.82,0-3.65,0-5.47,0c-0.3,0-0.71-0.11-0.8,0.34
		c-0.13,0.69-0.48,1.32-0.49,2.04c-0.38,0.87-0.5,1.81-0.79,2.7c-0.17,0.52-0.06,0.66,0.48,0.65c6.51-0.01,13.02,0.01,19.53-0.02
		C81.34,95.04,82.9,93.66,83.32,91.75z M76.88,58.9c-0.66,0.37-1.34,0.73-1.99,1.12c-3.22,1.89-6.44,3.78-9.66,5.67
		c-0.36,0.21-0.85,0.39-0.16,0.82c1.38,0.89,2.75,1.81,4.14,2.7c0.22,0.14,0.49,0.28,0.73,0.28c2.76,0,5.53,0.12,8.29-0.06
		c0.67,0.16,1.35,0.06,2.02,0.07c0.59,0.01,0.81-0.28,0.77-0.89c-0.27-3.67-0.52-7.34-0.77-11.02c-0.04-0.53-0.22-0.6-0.66-0.33
		C78.7,57.82,77.79,58.36,76.88,58.9z M67.71,33.63c0.9-0.5,1.82-0.96,2.69-1.5c0.94-0.58,1.17-1.47,0.65-2.44
		c-0.52-0.96-1.08-1.89-1.67-2.81c-0.5-0.77-1.3-1.1-2.06-0.74c-1.11,0.52-2.21,1.09-3.14,1.91c-0.99,0.32-1.81,0.95-2.7,1.47
		c-5.68,3.31-11.34,6.63-17.01,9.95c-1.34,0.78-1.55,1.66-0.76,3.02c0.39,0.66,0.78,1.32,1.17,1.98c0.84,1.43,1.71,1.63,3.14,0.78
		c3.6-2.13,7.2-4.25,10.8-6.37C61.8,37.12,64.76,35.37,67.71,33.63z M42.72,93.08c-0.33,0.54-0.4,1.16-0.57,1.75
		c-2.17,7.53-4.33,15.06-6.51,22.58c-0.15,0.51-0.18,0.75,0.47,0.74c4.16-0.02,8.32-0.02,12.48,0c0.47,0,0.67-0.16,0.8-0.6
		c1.29-4.53,2.6-9.06,3.92-13.58c0.14-0.49,0.01-0.63-0.48-0.62c-1.21,0.02-2.42,0.02-3.63-0.01c-0.85-0.02-1.46-0.64-1.49-1.44
		c-0.04-0.78,0.45-1.4,1.26-1.56c0.32-0.06,0.64-0.07,0.97-0.07c1.24-0.01,2.48-0.01,3.72,0c0.37,0,0.72,0.01,0.84-0.45
		c0.59-2.25,1.37-4.44,1.86-6.71c0.46-1.05,0.67-2.19,1.02-3.28c0.15-0.48-0.12-0.49-0.45-0.49c-4.22,0-8.43,0-12.65,0
		c-0.33,0-0.58,0.08-0.67,0.43C43.33,90.87,42.86,91.93,42.72,93.08z M76.45,55.33c0.77-0.42,1.53-0.86,2.32-1.25
		c0.52-0.26,0.56-0.55,0.26-1.04c-1.07-1.76-2.1-3.55-3.14-5.33c-2.07-3.53-4.15-7.07-6.23-10.59c-0.16-0.28-0.23-0.82-0.81-0.45
		c-0.79,0.51-1.67,0.87-2.39,1.48c-0.08,0.02-0.18,0.03-0.25,0.07c-4.57,2.68-9.14,5.36-13.72,8.03C52,46.54,52,46.77,52.27,47.22
		c3.09,5.23,6.17,10.45,9.2,15.71c0.46,0.8,0.82,0.83,1.55,0.39c2.64-1.6,5.33-3.13,7.98-4.72C72.82,57.51,74.72,56.55,76.45,55.33z
		 M92.71,75.21c0.18-0.46,0.08-0.93,0.09-1.4c0.02-1.23,0.01-1.23-1.24-1.23c-17.31,0-34.62,0-51.92,0c-2.56,0-2.56,0-2.21,2.63
		c-0.02,3.42-0.02,6.84-0.07,10.27c-0.01,0.66,0.26,0.79,0.84,0.77c1.62-0.05,3.24-0.07,4.87-0.07c13.81,0,27.62-0.01,41.43,0
		c2.45,0,4.9,0.01,7.35,0.07c0.76,0.02,0.97-0.25,0.94-0.97c-0.05-1.06-0.08-2.13,0.01-3.18c0.08-0.93-0.26-1.12-1.14-1.12
		c-14.43,0.03-28.86,0.02-43.29,0.02c-1.45,0-2.23-0.56-2.22-1.58c0.01-1.02,0.75-1.54,2.24-1.54c14.02,0,28.04,0,42.05,0
		C93.02,77.89,93.02,77.89,92.71,75.21z M32.07,81.59c2.19,0,2.19,0,2.19-2.2c0-2.09,0-2.09-2.13-2.09c-2.17,0-2.17,0-2.17,2.16
		C29.97,81.59,29.97,81.59,32.07,81.59z"/>
	<path class="st0" d="M125.79,82.81c2.12,1.27,4.24,2.54,6.35,3.82c0.4,0.24,0.85,0.46,1.05,0.92c0.28,0.65,0.25,1.28-0.29,1.79
		c-0.59,0.57-1.27,0.58-1.95,0.18c-1.98-1.17-3.95-2.35-5.93-3.52c-2.86-1.69-5.73-3.38-8.6-5.06c-0.59-0.35-1.04-0.8-1.02-1.53
		c0.02-0.64,0.38-1.08,0.92-1.41c4.26-2.51,8.53-5.02,12.79-7.53c1.32-0.78,2.16-0.73,2.7,0.16c0.56,0.93,0.2,1.7-1.15,2.51
		c-1.64,0.98-3.28,1.98-4.91,2.96c-1.7,0.99-3.39,1.99-5.09,2.97c-0.52,0.3-0.44,0.5,0.03,0.78
		C122.4,80.82,124.1,81.82,125.79,82.81z"/>
	<path class="st0" d="M125.79,82.81c-1.7-0.99-3.39-1.99-5.09-2.97c-0.47-0.27-0.55-0.47-0.03-0.78c1.7-0.98,3.39-1.98,5.09-2.97
		c1.61,0.04,3.13-0.48,4.7-0.72c1.1-0.17,2.2-0.42,3.3-0.62c1.1-0.2,1.94,0.3,2.12,1.22c0.18,0.9-0.45,1.65-1.57,1.86
		c-2.4,0.44-4.81,0.86-7.21,1.3c-0.28,0.05-0.56,0.15-0.85,0.4c0.49,0.1,0.98,0.2,1.47,0.29c1.94,0.36,3.88,0.69,5.82,1.09
		c0.94,0.19,1.44,0.99,1.28,1.82c-0.16,0.85-0.98,1.35-1.96,1.19c-0.64-0.11-1.27-0.26-1.91-0.35
		C129.21,83.36,127.55,82.72,125.79,82.81z"/>
	<path class="st0" d="M134.84,70.42c-0.81,0-1.3-0.35-1.52-0.99c-0.22-0.62-0.16-1.3,0.43-1.67c1.61-1.02,3.25-2,4.92-2.92
		c0.71-0.39,1.5-0.04,1.9,0.63c0.4,0.68,0.3,1.52-0.39,1.96c-1.58,1.01-3.22,1.94-4.84,2.89C135.16,70.41,134.93,70.4,134.84,70.42z
		"/>
	<path class="st0" d="M138.2,81.76c1.23,0.23,2.8,0.48,4.35,0.83c0.84,0.19,1.3,1.04,1.13,1.84c-0.16,0.75-0.97,1.32-1.83,1.18
		c-1.48-0.25-2.95-0.53-4.42-0.85c-0.99-0.21-1.45-0.89-1.32-1.77C136.25,82.16,136.87,81.71,138.2,81.76z"/>
	<path class="st0" d="M136.43,89.48c0.33,0,0.63,0.07,0.92,0.24c0.85,0.52,1.73,1,2.57,1.53c0.87,0.55,1.09,1.42,0.61,2.19
		c-0.46,0.73-1.31,0.93-2.17,0.45c-0.92-0.52-1.83-1.06-2.72-1.63c-0.66-0.42-0.84-1.07-0.61-1.77
		C135.24,89.85,135.73,89.49,136.43,89.48z"/>
	<path class="st0" d="M141.68,73.28c1.24-0.03,1.88,0.43,2.01,1.21c0.14,0.84-0.3,1.58-1.19,1.79c-1.08,0.26-2.18,0.47-3.29,0.64
		c-0.79,0.12-1.52-0.48-1.68-1.25c-0.16-0.79,0.27-1.57,1.08-1.77C139.74,73.62,140.87,73.44,141.68,73.28z"/>
	<path class="st1" d="M92.71,75.21c0.31,2.68,0.31,2.68-2.27,2.68c-14.02,0-28.04,0-42.05,0c-1.49,0-2.23,0.51-2.24,1.54
		c-0.01,1.02,0.77,1.58,2.22,1.58c14.43,0,28.86,0.01,43.29-0.02c0.88,0,1.21,0.19,1.14,1.12c-0.09,1.06-0.06,2.12-0.01,3.18
		c0.03,0.72-0.18,0.99-0.94,0.97c-2.45-0.06-4.9-0.07-7.35-0.07c-13.81-0.01-27.62,0-41.43,0c-1.62,0-3.25,0.02-4.87,0.07
		c-0.58,0.02-0.85-0.11-0.84-0.77c0.05-3.42,0.05-6.84,0.07-10.27C55.86,75.22,74.28,75.21,92.71,75.21z"/>
	<path class="st2" d="M76.45,55.33c-1.73,1.22-3.62,2.18-5.44,3.27c-2.65,1.59-5.34,3.12-7.98,4.72c-0.73,0.44-1.09,0.42-1.55-0.39
		c-3.03-5.26-6.11-10.49-9.2-15.71C52,46.77,52,46.54,52.48,46.26c4.58-2.67,9.15-5.35,13.72-8.03c0.07-0.04,0.17-0.05,0.25-0.07
		c2.06,3.5,4.14,7,6.18,10.52C73.91,50.89,75.29,53.05,76.45,55.33z"/>
	<path class="st3" d="M56.35,93.1c-0.49,2.27-1.27,4.47-1.86,6.71c-0.12,0.46-0.47,0.45-0.84,0.45c-1.24-0.01-2.48-0.01-3.72,0
		c-0.32,0-0.65,0.01-0.97,0.07c-0.81,0.16-1.3,0.78-1.26,1.56c0.04,0.8,0.64,1.42,1.49,1.44c1.21,0.03,2.42,0.02,3.63,0.01
		c0.49-0.01,0.62,0.13,0.48,0.62c-1.32,4.52-2.62,9.05-3.92,13.58c-0.13,0.44-0.33,0.61-0.8,0.6c-4.16-0.02-8.32-0.02-12.48,0
		c-0.65,0-0.62-0.23-0.47-0.74c2.18-7.52,4.34-15.05,6.51-22.58c0.17-0.59,0.24-1.21,0.57-1.75C47.27,93.09,51.81,93.09,56.35,93.1z
		"/>
	<path class="st2" d="M67.71,33.63c-2.96,1.75-5.92,3.5-8.88,5.25c-3.6,2.12-7.2,4.24-10.8,6.37c-1.43,0.85-2.3,0.65-3.14-0.78
		c-0.39-0.66-0.78-1.32-1.17-1.98c-0.8-1.36-0.58-2.24,0.76-3.02c5.67-3.32,11.33-6.64,17.01-9.95c0.88-0.51,1.71-1.15,2.7-1.47
		c1.92,0.67,3.02,2.03,3.38,4.02C67.67,32.59,67.45,33.13,67.71,33.63z"/>
	<path class="st1" d="M92.71,75.21c-18.43,0-36.85,0-55.28,0c-0.36-2.63-0.36-2.63,2.21-2.63c17.31,0,34.62,0,51.92,0
		c1.24,0,1.25,0,1.24,1.23C92.79,74.28,92.89,74.76,92.71,75.21z"/>
	<path class="st2" d="M78.23,69.44c-2.76,0.18-5.53,0.06-8.29,0.06c-0.24,0-0.51-0.14-0.73-0.28c-1.39-0.89-2.76-1.81-4.14-2.7
		c-0.68-0.44-0.2-0.61,0.16-0.82c3.22-1.89,6.44-3.79,9.66-5.67c0.66-0.38,1.33-0.75,1.99-1.12C77.33,62.41,77.78,65.92,78.23,69.44
		z"/>
	<path class="st3" d="M83.32,91.75c-0.42,1.91-1.98,3.29-3.93,3.3c-6.51,0.03-13.02,0.01-19.53,0.02c-0.54,0-0.65-0.13-0.48-0.65
		c0.3-0.89,0.41-1.83,0.79-2.7c0.68,0,1.35,0.01,2.03,0.01C69.25,91.74,76.28,91.74,83.32,91.75z"/>
	<path class="st2" d="M76.45,55.33c-1.16-2.29-2.54-4.44-3.82-6.66c-2.04-3.52-4.12-7.01-6.18-10.52c0.72-0.62,1.6-0.97,2.39-1.48
		c0.58-0.38,0.65,0.17,0.81,0.45c2.09,3.53,4.16,7.06,6.23,10.59c1.05,1.78,2.07,3.57,3.14,5.33c0.3,0.49,0.26,0.77-0.26,1.04
		C77.98,54.48,77.22,54.91,76.45,55.33z"/>
	<path class="st3" d="M83.32,91.75c-7.04-0.01-14.07-0.01-21.11-0.02c-0.68,0-1.35-0.01-2.03-0.01c0.01-0.71,0.35-1.35,0.49-2.04
		c0.09-0.45,0.49-0.34,0.8-0.34c1.82-0.01,3.65,0,5.47,0c5.18,0,10.36,0.02,15.54-0.02c0.84-0.01,1.11,0.26,1,1.05
		C83.41,90.82,83.53,91.3,83.32,91.75z"/>
	<path class="st3" d="M56.35,93.1c-4.54-0.01-9.08-0.01-13.63-0.02c0.14-1.15,0.6-2.21,0.88-3.32c0.09-0.35,0.33-0.43,0.67-0.43
		c4.22,0.01,8.43,0,12.65,0c0.32,0,0.6,0.01,0.45,0.49C57.02,90.91,56.81,92.04,56.35,93.1z"/>
	<path class="st3" d="M26.78,75.21c0.02,3.5,0.04,7.01,0.06,10.51c0,0.43-0.22,0.56-0.61,0.56c-0.94-0.01-1.89-0.01-2.83,0
		c-0.41,0.01-0.59-0.16-0.59-0.57c0.04-3.5-0.09-7.01,0.07-10.51C24.18,75.21,25.48,75.21,26.78,75.21z"/>
	<path class="st1" d="M104.61,80.86c-2.66,1.51-5.45,2.76-8.17,4.16c-0.32,0.16-0.52,0.13-0.51-0.27c0.04-2.74-0.1-5.48,0.08-8.21
		C98.87,77.98,101.74,79.42,104.61,80.86z"/>
	<path class="st2" d="M78.23,69.44c-0.45-3.51-0.9-7.03-1.35-10.54c0.9-0.54,1.81-1.08,2.71-1.64c0.43-0.27,0.62-0.2,0.66,0.33
		c0.25,3.67,0.5,7.35,0.77,11.02c0.05,0.61-0.17,0.89-0.77,0.89C79.58,69.5,78.9,69.6,78.23,69.44z"/>
	<path class="st1" d="M104.61,80.86c-2.87-1.44-5.73-2.88-8.6-4.32c-0.19-0.72-0.04-1.46-0.09-2.19c-0.04-0.65,0.21-0.67,0.73-0.41
		c2.57,1.3,5.14,2.58,7.72,3.87c0.87,0.43,1.73,0.87,2.6,1.3c0.16,0.08,0.36,0.13,0.39,0.32c0.03,0.22-0.21,0.27-0.35,0.33
		C106.19,80.1,105.46,80.62,104.61,80.86z"/>
	<path class="st2" d="M67.71,33.63c-0.26-0.5-0.05-1.04-0.14-1.56c-0.36-1.99-1.46-3.35-3.38-4.02c0.94-0.82,2.04-1.38,3.14-1.91
		c0.76-0.36,1.57-0.03,2.06,0.74c0.59,0.91,1.15,1.85,1.67,2.81c0.52,0.96,0.28,1.86-0.65,2.44C69.53,32.67,68.61,33.13,67.71,33.63
		z"/>
	<path class="st3" d="M32.07,81.59c-2.1,0-2.1,0-2.1-2.13c0-2.16,0-2.16,2.17-2.16c2.13,0,2.13,0,2.13,2.09
		C34.26,81.59,34.26,81.59,32.07,81.59z"/>
	<path class="st3" d="M26.78,75.21c-1.3,0-2.59,0-3.89,0c-0.31-2.62-0.31-2.62,2.2-2.62c1.76,0,1.76,0,1.75,1.75
		C26.84,74.63,26.8,74.92,26.78,75.21z"/>
</g>
</svg>
