<?xml version="1.0" encoding="utf-8"?>
<!-- Generator: Adobe Illustrator 24.0.0, SVG Export Plug-In . SVG Version: 6.00 Build 0)  -->
<svg version="1.1" id="Capa_1" xmlns="http://www.w3.org/2000/svg" xmlns:xlink="http://www.w3.org/1999/xlink" x="0px" y="0px"
	 viewBox="0 0 158 158" style="enable-background:new 0 0 158 158;" xml:space="preserve">
<style type="text/css">
	.st0{fill:#0099D4;}
	.st1{fill:#FFB64C;}
	.st2{fill:#FF9100;}
	.st3{fill:#231F20;}
</style>
<g>
	<path class="st0" d="M102.08,40.84H78.83H50.95c-3.82,0-6.93,2.81-6.93,6.27v8.36c0,3.46,3.11,6.27,6.93,6.27l4.62-4.18h4.62
		l4.77,4.18h13.86h23.26c3.82,0,6.93-2.81,6.93-6.27v-8.36C109.01,43.65,105.9,40.84,102.08,40.84z"/>
	<path class="st0" d="M53.82,76.47c-2.76,0-5.01-1.73-5.01-3.85V61.06c0-2.12,2.25-3.85,5.01-3.85H64c2.76,0,5.01,1.73,5.01,3.85
		c0,2.12-2.25,3.85-5.01,3.85h-5.17v7.7C58.83,74.74,56.58,76.47,53.82,76.47z"/>
	<path class="st1" d="M86.79,100.65c-0.94-2.64-1.83-5.13-1.83-8.24V87.7c0-3.77-2.67-6.83-5.94-6.83c-3.28,0-5.94,3.06-5.94,6.83
		v4.71c0,0.78-0.06,1.53-0.15,2.24c-0.29,2.12-0.97,4.01-1.68,6.01c-1.05,2.93-2.13,6.12-2.13,10.12c0,6.28,4.44,11.38,9.91,11.38
		c5.46,0,9.91-5.11,9.91-11.38C88.92,106.77,87.84,103.58,86.79,100.65z"/>
	<path class="st2" d="M88.92,110.77c0-4-1.08-7.19-2.13-10.12c-0.94-2.64-1.83-5.13-1.83-8.24V87.7c0-3.77-2.67-6.83-5.94-6.83
		v41.28C84.48,122.16,88.92,117.05,88.92,110.77z"/>
	<path class="st3" d="M120.91,66.31V56.3c0-3.69-3-6.68-6.68-6.68h-2.5h-0.83v-0.83v-2.5c0-3.69-3-6.68-6.68-6.68h-55.4
		c-3.69,0-6.68,3-6.68,6.68v2.5v0.83h-0.83h-4.18v3.35h4.18h0.83v0.83v2.5c0,2.82,1.79,5.35,4.46,6.3l0.55,0.19v0.58v7.94
		c0,3.69,3,6.68,6.68,6.68c3.69,0,6.68-3,6.68-6.68v-2.5v-0.83h0.83h2.5c2.82,0,5.35-1.79,6.3-4.46l0.19-0.55h0.58h33.3
		c3.69,0,6.68-3,6.68-6.68v-2.5v-0.83h0.83h2.5c1.84,0,3.33,1.49,3.33,3.33v10.01c0,1.84-1.49,3.33-3.33,3.33h-30.2
		c-3.69,0-6.68,3-6.68,6.68v2.93v0.58l-0.55,0.19c-2.67,0.95-4.46,3.48-4.46,6.3v5.17c0,3.75-1.05,6.3-2.38,9.54
		c-1.29,3.15-2.63,6.41-2.63,10.65c0,6.45,5.24,11.69,11.69,11.69c6.45,0,11.69-5.24,11.69-11.69c0-4.24-1.33-7.53-2.63-10.72
		c-1.22-3.03-2.38-5.88-2.38-9.47v-5.17c0-2.82-1.79-5.35-4.46-6.3l-0.55-0.19v-0.58v-2.93c0-1.84,1.49-3.33,3.33-3.33h30.2
		C117.91,72.99,120.91,69.99,120.91,66.31z M63.83,64.63h-6.68v6.68c0,1.84-1.49,3.33-3.33,3.33c-1.84,0-3.33-1.49-3.33-3.33V61.3
		c0-1.84,1.49-3.33,3.33-3.33h10.01c1.84,0,3.33,1.49,3.33,3.33C67.16,63.14,65.67,64.63,63.83,64.63z M107.54,56.3
		c0,1.84-1.49,3.33-3.33,3.33h-33.3h-0.58l-0.19-0.55c-0.95-2.67-3.48-4.46-6.3-4.46H53.82c-2.55,0-4.92,1.49-6.03,3.8l-0.5,1.05
		l-0.82-0.82c-0.63-0.63-0.98-1.46-0.98-2.35V46.28c0-1.84,1.49-3.33,3.33-3.33h55.4c1.84,0,3.33,1.49,3.33,3.33V56.3z M82.35,86.33
		v5.17c0,4.24,1.33,7.53,2.63,10.72c1.22,3.03,2.38,5.88,2.38,9.47c0,4.6-3.74,8.33-8.33,8.33c-4.6,0-8.33-3.74-8.33-8.33
		c0-3.58,1.15-6.39,2.38-9.37c1.59-3.87,2.63-6.71,2.63-10.82v-5.17c0-1.84,1.49-3.33,3.33-3.33C80.85,83,82.35,84.49,82.35,86.33z"
		/>
	<path class="st3" d="M120.91,66.31V56.3c0-3.69-3-6.68-6.68-6.68h-2.5h-0.83v-0.83v-2.5c0-3.69-3-6.68-6.68-6.68h-55.4
		c-3.69,0-6.68,3-6.68,6.68v2.5v0.83h-0.83h-4.18v3.35h4.18h0.83v0.83v2.5c0,2.82,1.79,5.35,4.46,6.3l0.55,0.19v0.58v7.94
		c0,3.69,3,6.68,6.68,6.68c3.69,0,6.68-3,6.68-6.68v-2.5v-0.83h0.83h2.5c2.82,0,5.35-1.79,6.3-4.46l0.19-0.55h0.58h33.3
		c3.69,0,6.68-3,6.68-6.68v-2.5v-0.83h0.83h2.5c1.84,0,3.33,1.49,3.33,3.33v10.01c0,1.84-1.49,3.33-3.33,3.33h-30.2
		c-3.69,0-6.68,3-6.68,6.68v2.93v0.58l-0.55,0.19c-2.67,0.95-4.46,3.48-4.46,6.3v5.17c0,3.75-1.05,6.3-2.38,9.54
		c-1.29,3.15-2.63,6.41-2.63,10.65c0,6.45,5.24,11.69,11.69,11.69c6.45,0,11.69-5.24,11.69-11.69c0-4.24-1.33-7.53-2.63-10.72
		c-1.22-3.03-2.38-5.88-2.38-9.47v-5.17c0-2.82-1.79-5.35-4.46-6.3l-0.55-0.19v-0.58v-2.93c0-1.84,1.49-3.33,3.33-3.33h30.2
		C117.91,72.99,120.91,69.99,120.91,66.31z M63.83,64.63h-6.68v6.68c0,1.84-1.49,3.33-3.33,3.33c-1.84,0-3.33-1.49-3.33-3.33V61.3
		c0-1.84,1.49-3.33,3.33-3.33h10.01c1.84,0,3.33,1.49,3.33,3.33C67.16,63.14,65.67,64.63,63.83,64.63z M107.54,56.3
		c0,1.84-1.49,3.33-3.33,3.33h-33.3h-0.58l-0.19-0.55c-0.95-2.67-3.48-4.46-6.3-4.46H53.82c-2.55,0-4.92,1.49-6.03,3.8l-0.5,1.05
		l-0.82-0.82c-0.63-0.63-0.98-1.46-0.98-2.35V46.28c0-1.84,1.49-3.33,3.33-3.33h55.4c1.84,0,3.33,1.49,3.33,3.33V56.3z M82.35,86.33
		v5.17c0,4.24,1.33,7.53,2.63,10.72c1.22,3.03,2.38,5.88,2.38,9.47c0,4.6-3.74,8.33-8.33,8.33c-4.6,0-8.33-3.74-8.33-8.33
		c0-3.58,1.15-6.39,2.38-9.37c1.59-3.87,2.63-6.71,2.63-10.82v-5.17c0-1.84,1.49-3.33,3.33-3.33C80.85,83,82.35,84.49,82.35,86.33z"
		/>
</g>
</svg>
