<?xml version="1.0" encoding="utf-8"?>
<!-- Generator: Adobe Illustrator 24.0.0, SVG Export Plug-In . SVG Version: 6.00 Build 0)  -->
<svg version="1.1" id="Layer_1" xmlns="http://www.w3.org/2000/svg" xmlns:xlink="http://www.w3.org/1999/xlink" x="0px" y="0px"
	 viewBox="0 0 72.9 72.89" style="enable-background:new 0 0 72.9 72.89;" xml:space="preserve">
<style type="text/css">
	.st0{fill:#FFFFFF;}
</style>
<g>
	<path class="st0" d="M33.58,16.85c0,1.91,0.04,3.82-0.01,5.72c-0.17,6.01-4.99,10.86-11,10.99c-3.81,0.08-7.63,0.08-11.44,0
		c-6.05-0.12-10.94-5-11.07-11.06c-0.08-3.77-0.07-7.54,0-11.31C0.17,5.06,5.07,0.16,11.2,0.05c3.73-0.07,7.46-0.07,11.18,0
		c6.2,0.11,11.08,5.01,11.2,11.21C33.62,13.12,33.59,14.99,33.58,16.85C33.58,16.85,33.58,16.85,33.58,16.85z M5.77,16.76
		c0,1.9-0.03,3.81,0.01,5.71c0.06,2.85,2.29,5.28,5.14,5.36c3.93,0.12,7.88,0.11,11.81,0c2.73-0.08,5.03-2.4,5.11-5.13
		c0.11-3.94,0.12-7.88,0-11.81c-0.09-2.85-2.53-5.08-5.39-5.12c-3.77-0.04-7.53-0.05-11.3,0c-2.97,0.04-5.31,2.41-5.38,5.4
		C5.74,13.04,5.77,14.9,5.77,16.76z"/>
	<path class="st0" d="M39.31,16.74c0-1.82-0.03-3.64,0-5.46C39.43,5.07,44.3,0.16,50.5,0.05c3.73-0.07,7.46-0.07,11.18,0
		c6.13,0.11,11.04,5,11.16,11.12c0.07,3.77,0.08,7.54,0,11.31c-0.13,6.13-5.04,10.99-11.18,11.09c-3.73,0.06-7.46,0.06-11.18,0
		c-6.16-0.11-11.01-4.96-11.16-11.11C39.28,20.55,39.31,18.65,39.31,16.74z M56.08,5.76c-1.82,0-3.64-0.02-5.45,0
		c-3.08,0.05-5.51,2.28-5.59,5.33c-0.1,3.81-0.09,7.62,0,11.43c0.07,2.93,2.4,5.26,5.33,5.33c3.81,0.09,7.62,0.09,11.43,0
		c2.94-0.07,5.26-2.4,5.33-5.33c0.09-3.81,0.1-7.62,0-11.43c-0.08-3.05-2.51-5.29-5.59-5.33C59.72,5.74,57.9,5.76,56.08,5.76z"/>
	<path class="st0" d="M39.31,56.01c0-1.82-0.03-3.64,0-5.46c0.12-6.21,4.98-11.12,11.18-11.23c3.73-0.07,7.46-0.07,11.18,0
		c6.13,0.11,11.04,5,11.16,11.12c0.07,3.77,0.08,7.54,0,11.31c-0.13,6.13-5.04,10.99-11.18,11.09c-3.73,0.06-7.46,0.06-11.18,0
		c-6.16-0.11-11.01-4.96-11.16-11.11C39.28,59.83,39.31,57.92,39.31,56.01z M56.08,45.03c-1.82,0-3.64-0.02-5.45,0
		c-3.08,0.05-5.51,2.28-5.59,5.33c-0.1,3.81-0.09,7.62,0,11.43c0.07,2.93,2.4,5.26,5.33,5.33c3.81,0.09,7.62,0.09,11.43,0
		c2.94-0.07,5.26-2.4,5.33-5.33c0.09-3.81,0.1-7.62,0-11.43c-0.08-3.05-2.51-5.29-5.59-5.33C59.72,45.01,57.9,45.03,56.08,45.03z"/>
	<path class="st0" d="M33.59,55.97c0,1.86,0.03,3.73,0,5.59c-0.11,6.28-4.99,11.19-11.27,11.28c-3.68,0.06-7.37,0.06-11.05,0
		c-6.2-0.1-11.11-5-11.21-11.2c-0.06-3.68-0.06-7.37,0-11.05c0.09-6.28,5-11.18,11.27-11.27c3.68-0.05,7.37-0.06,11.05,0
		c6.22,0.1,11.08,4.97,11.21,11.19C33.62,52.33,33.59,54.15,33.59,55.97z M5.77,56.06c0,1.86-0.03,3.72,0.01,5.58
		c0.05,2.94,2.27,5.38,5.18,5.47c3.89,0.12,7.79,0.11,11.68,0.01c2.81-0.07,5.13-2.38,5.21-5.17c0.11-3.89,0.11-7.79,0-11.68
		c-0.07-2.81-2.38-5.13-5.17-5.21c-3.89-0.11-7.79-0.11-11.68,0c-2.92,0.08-5.16,2.5-5.22,5.43C5.74,52.34,5.77,54.2,5.77,56.06z"/>
</g>
</svg>
