<?xml version="1.0" encoding="utf-8"?>
<!-- Generator: Adobe Illustrator 24.0.0, SVG Export Plug-In . SVG Version: 6.00 Build 0)  -->
<svg version="1.1" id="Layer_1" xmlns="http://www.w3.org/2000/svg" xmlns:xlink="http://www.w3.org/1999/xlink" x="0px" y="0px"
	 viewBox="0 0 94.82 76.47" style="enable-background:new 0 0 94.82 76.47;" xml:space="preserve">
<style type="text/css">
	.st0{fill:#FFFFFF;}
</style>
<g>
	<path class="st0" d="M90.23,0H4.59C2.06,0,0,2.06,0,4.59v52c0,2.53,2.06,4.58,4.59,4.59h31.62l-2.18,7.65h-6.49
		c-0.84,0-1.53,0.68-1.53,1.53v3.06H13.76c-0.84,0-1.53,0.68-1.53,1.53c0,0.84,0.68,1.53,1.53,1.53h67.29
		c0.84,0,1.53-0.68,1.53-1.53c0-0.84-0.68-1.53-1.53-1.53H68.82v-3.06c0-0.84-0.68-1.53-1.53-1.53H60.8l-2.18-7.65h31.62
		c2.53,0,4.58-2.06,4.59-4.59v-52C94.82,2.06,92.76,0,90.23,0z M65.76,71.88v1.53h-36.7v-1.53H65.76z M37.2,68.82l2.18-7.65h16.05
		l2.18,7.65H37.2z M91.76,56.59c0,0.84-0.69,1.53-1.53,1.53H4.59c-0.84,0-1.53-0.69-1.53-1.53v-3.06h88.7V56.59z M91.76,50.47H3.06
		V4.59c0-0.84,0.69-1.53,1.53-1.53h85.64c0.84,0,1.53,0.69,1.53,1.53V50.47z"/>
	<path class="st0" d="M71.88,27.79v-7.91c0-0.59-0.34-1.13-0.88-1.39L48.06,7.79c-0.41-0.19-0.88-0.19-1.29,0L23.82,18.5
		c-0.77,0.36-1.1,1.27-0.74,2.03c0.15,0.33,0.41,0.59,0.74,0.74l8.29,3.87v17.69c0,0.84,0.68,1.53,1.53,1.53h27.53
		c0.84,0,1.53-0.68,1.53-1.53V25.14l6.12-2.85v5.51c-2.39,0.84-3.64,3.47-2.8,5.86c0.84,2.39,3.47,3.64,5.86,2.8s3.64-3.47,2.8-5.86
		C74.21,29.28,73.19,28.25,71.88,27.79z M59.64,41.29H35.18V26.56l11.59,5.41c0.41,0.19,0.88,0.19,1.29,0l11.59-5.41V41.29z
		 M47.41,28.9l-19.32-9.02l19.32-9.02l19.32,9.02L47.41,28.9z M70.35,33.65c-0.84,0-1.53-0.68-1.53-1.53s0.68-1.53,1.53-1.53
		c0.84,0,1.53,0.68,1.53,1.53C71.88,32.96,71.19,33.64,70.35,33.65z"/>
</g>
</svg>
