<?xml version="1.0" encoding="utf-8"?>
<!-- Generator: Adobe Illustrator 24.0.0, SVG Export Plug-In . SVG Version: 6.00 Build 0)  -->
<svg version="1.1" id="Layer_1" xmlns="http://www.w3.org/2000/svg" xmlns:xlink="http://www.w3.org/1999/xlink" x="0px" y="0px"
	 viewBox="0 0 70.19 70.18" style="enable-background:new 0 0 70.19 70.18;" xml:space="preserve">
<style type="text/css">
	.st0{fill:#0860AC;}
</style>
<g>
	<g>
		<g>
			<g>
				<path class="st0" d="M48,49.56c-14.27,11.79-31.93,8.59-41.29-2.58C-2.77,35.66-2.12,18.82,8.14,8.54
					C18.94-2.27,35.8-2.91,47.42,7.14c10.19,8.81,14.24,26.29,2.31,40.74c1.69-0.19,2.66,0.76,3.67,1.78
					c5.16,5.22,10.37,10.39,15.56,15.58c1.62,1.62,1.63,2.4,0.13,3.88c-1.49,1.47-2.2,1.43-3.88-0.25
					c-5.24-5.23-10.46-10.48-15.73-15.68C48.52,52.24,47.73,51.3,48,49.56z M28.58,52.65c13.16,0,24.25-10.89,24.06-23.98
					C52.43,14.65,42.16,4.4,28.48,4.44C14.62,4.47,4.48,15.01,4.45,28.39C4.42,42.26,14.98,52.5,28.58,52.65z"/>
			</g>
		</g>
	</g>
</g>
</svg>
