<?xml version="1.0" encoding="utf-8"?>
<!-- Generator: Adobe Illustrator 24.0.0, SVG Export Plug-In . SVG Version: 6.00 Build 0)  -->
<svg version="1.1" id="Layer_1" xmlns="http://www.w3.org/2000/svg" xmlns:xlink="http://www.w3.org/1999/xlink" x="0px" y="0px"
	 viewBox="0 0 280.5 277.7" style="enable-background:new 0 0 280.5 277.7;" xml:space="preserve">
<style type="text/css">
	.st0{fill:#C2D100;}
</style>
<g>
	<g>
		<path class="st0" d="M280.5,142.6c-0.3,33.5-13,66.5-39.1,94.2c-1.1,1.1-3,1.5-4.6,2.2c-0.4-1.6-1.4-3.4-1.3-4.9
			c1.5-13.2,1.7-26.2-1.9-39.2c-7.9-28.8-25.1-49.9-52-63c-7.1-3.5-7.1-3.5-2-9.7c14-16.9,17.6-35.9,8.7-56
			c-9.2-20.6-26.1-31.5-48.7-31.1c-22,0.4-38.3,11.3-47,31.5c-8.8,20.1-5.1,39.1,9,55.9c4.7,5.6,4.7,6.1-1.7,9.1
			c-38.3,17.9-60,57.4-54.7,99.3c0.3,2.6-0.5,5.3-0.9,8c-2.2-1.4-5-2.3-6.6-4.2c-38.1-43.9-48-93.8-26.5-147.4
			C30.5,39.1,67.6,10,119.3,1.9c45.4-7.1,85.2,5.9,118.4,37.5C265.7,66.1,279.4,99.4,280.5,142.6z"/>
		<path class="st0" d="M144,280c-18.2-0.4-32.6-1.9-46.2-7.4c-23.5-9.5-37.3-33.8-35.9-59c1.9-34.8,29.2-69.2,70.7-73.4
			c43.2-4.3,77.9,26.1,85,62.8c3,15.7,2.2,30.8-6.1,44.9c-10.5,17.8-26.8,26.8-46.7,29.7C156.7,278.9,148.5,279.5,144,280z"/>
		<path class="st0" d="M175.5,87.5c0,19.3-15.7,34.9-35,34.9c-19.5,0-35.2-15.8-35-35.3c0.1-19.2,16-34.8,35.2-34.6
			C160,52.5,175.5,68.2,175.5,87.5z"/>
	</g>
</g>
</svg>
