<?xml version="1.0" encoding="utf-8"?>
<!-- Generator: Adobe Illustrator 24.0.0, SVG Export Plug-In . SVG Version: 6.00 Build 0)  -->
<svg version="1.1" id="Layer_1" xmlns="http://www.w3.org/2000/svg" xmlns:xlink="http://www.w3.org/1999/xlink" x="0px" y="0px"
	 viewBox="0 0 280.53 280.28" style="enable-background:new 0 0 280.53 280.28;" xml:space="preserve">
<style type="text/css">
	.st0{fill:#005CB9;}
</style>
<g>
	<path class="st0" d="M140.37,233.5c-26.81,0-53.62,0.01-80.43,0c-10,0-12.71-2.62-12.53-12.77c0.21-12.13-0.64-24.48,1.36-36.33
		c4.31-25.5,27.32-43.99,53.16-44.13c25.81-0.14,51.62-0.16,77.43,0c29.46,0.18,53.66,23.99,54.46,53.51
		c0.27,9.82,0.15,19.65,0.05,29.47c-0.07,7.28-3.3,10.23-11.06,10.24C195.33,233.52,167.85,233.5,140.37,233.5z"/>
	<path class="st0" d="M140.75,116.99c-25.59,0.1-46.78-20.99-46.88-46.63c-0.1-25.59,20.99-46.78,46.63-46.88
		c25.59-0.1,46.78,20.99,46.88,46.63C187.48,95.7,166.4,116.89,140.75,116.99z"/>
	<path class="st0" d="M0,45.11c0.7-6.75,0.5-13.74,2.27-20.2C6.13,10.83,18.88,1.11,33.53,0.38C42-0.04,50.51,0.09,58.99,0.29
		c6.73,0.16,11.74,5.53,11.6,11.9c-0.14,6.54-5.06,11.15-12.08,11.21c-6.99,0.05-13.98-0.05-20.97,0.03
		c-8.94,0.11-13.53,4.67-13.63,13.55c-0.08,6.82,0.07,13.65-0.05,20.47c-0.14,7.67-4.99,12.85-11.74,12.77
		c-6.7-0.08-11.39-5.38-11.49-13.06c-0.05-3.99-0.01-7.99-0.01-11.98C0.41,45.15,0.21,45.13,0,45.11z"/>
	<path class="st0" d="M235.01,0c5.31,0.24,10.7-0.01,15.92,0.81c16.94,2.65,28.87,16.1,29.61,33.26c0.34,7.97,0.21,15.97,0.06,23.95
		c-0.13,7.1-5.36,12.3-11.86,12.19c-6.43-0.11-11.12-4.99-11.31-12.11c-0.17-6.48-0.04-12.98-0.07-19.46
		c-0.05-10.89-4.29-15.19-15.04-15.22c-6.65-0.02-13.31,0.05-19.96-0.02c-6.68-0.07-11.39-4.58-11.7-11.04
		c-0.29-6.18,4.38-11.57,10.87-12.02C226,0.02,230.51,0.28,235,0.28C235,0.18,235,0.09,235.01,0z"/>
	<path class="st0" d="M0.64,234.62c0-4.33-0.13-8.67,0.03-13c0.24-6.4,5.43-11.37,11.61-11.37c6.06,0,11.17,4.63,11.44,10.94
		c0.31,7.15,0.11,14.33,0.18,21.49c0.09,9.94,4.47,14.31,14.37,14.37c6.5,0.04,13-0.06,19.5,0.03c7.62,0.1,12.95,5.02,12.82,11.68
		c-0.12,6.49-5.39,11.48-12.63,11.44c-9.65-0.06-19.41,0.41-28.91-0.88c-15.79-2.14-27.65-16.22-28.36-32.2
		c-0.18-4.16-0.03-8.33-0.03-12.5C0.66,234.62,0.65,234.62,0.64,234.62z"/>
	<path class="st0" d="M235.15,280.23c-4.17,0-8.33,0.11-12.5-0.02c-7.11-0.23-12.14-5.35-12.01-12.04
		c0.12-6.13,5.07-10.9,11.85-11.06c6.99-0.17,14,0,20.99-0.07c9.21-0.1,13.73-4.63,13.85-13.92c0.1-7.16-0.09-14.33,0.11-21.49
		c0.17-6.35,4.92-11.07,11.01-11.36c5.71-0.27,11.65,4.08,11.87,9.93c0.38,10.29,0.92,20.77-0.5,30.9
		c-2.42,17.22-16.73,28.73-34.17,29.13C242.15,280.3,238.65,280.23,235.15,280.23z"/>
</g>
</svg>
