<svg id="Layer_1" data-name="Layer 1" xmlns="http://www.w3.org/2000/svg" viewBox="0 0 22.91 16.04"><defs><style>.cls-1{fill:#5cbdeb;}</style></defs><path id="ic_supervisor_account_24px" data-name="ic supervisor account 24px" class="cls-1" d="M37.53,32.63a2.87,2.87,0,1,0-2.87-2.87,2.87,2.87,0,0,0,2.87,2.87Zm-8.6-1.15A3.44,3.44,0,1,0,25.5,28a3.44,3.44,0,0,0,3.43,3.44Zm8.6,3.44c-2.1,0-6.3,1-6.3,3.15v2.58h12.6V38.07C43.83,36,39.62,34.92,37.53,34.92Zm-8.6-1.15c-2.67,0-8,1.34-8,4v2.87h8V38.07c0-1,.38-2.68,2.72-4A14.54,14.54,0,0,0,28.93,33.77Z" transform="translate(-20.91 -24.61)"/></svg>