<?xml version="1.0" encoding="utf-8"?>
<!-- Generator: Adobe Illustrator 24.0.0, SVG Export Plug-In . SVG Version: 6.00 Build 0)  -->
<svg version="1.1" id="Layer_1" xmlns="http://www.w3.org/2000/svg" xmlns:xlink="http://www.w3.org/1999/xlink" x="0px" y="0px"
	 viewBox="0 0 426.39 293.13" style="enable-background:new 0 0 426.39 293.13;" xml:space="preserve">
<style type="text/css">
	.st0{fill:#FFFFFF;}
</style>
<g>
	<path class="st0" d="M214.91-3.04c35.22-0.57,72.32,1.26,109.35,4.22c15.51,1.24,31.33,1.32,46.04,7.59
		c32.44,13.82,50.88,38.18,53.84,73.4c3.26,38.74,2.4,77.57,0.95,116.38c-0.79,20.98-5.84,40.41-19.46,56.92
		c-15.87,19.23-36.38,29.38-61.15,31.6c-22.06,1.97-44.13,3.62-66.24,4.76c-27.96,1.44-55.96,1.44-83.96,1.2
		c-36.49-0.31-72.86-2.67-109.22-5.7c-23.41-1.95-43.65-9.7-59.91-26.79c-13.9-14.6-21.64-32.01-23.12-52.21
		c-2.84-38.78-2.24-77.57-0.93-116.39c0.87-25.86,8.58-48.62,28.06-66.5c15.02-13.79,32.82-20.9,53.1-22.5
		c18.75-1.48,37.48-3.11,56.27-4.14C163.32-2.57,188.12-3.23,214.91-3.04z M277.67,145.39c-0.38-0.72-0.42-0.91-0.54-0.99
		C243.57,123.89,210,103.4,176.48,82.83c-2.82-1.73-2.97-0.45-2.97,1.9c0.02,40.14,0.03,80.28-0.02,120.41
		c0,3.03,0.67,3.5,3.32,1.85c9.71-6.07,19.53-11.97,29.31-17.94C229.9,174.54,253.69,160.02,277.67,145.39z"/>
</g>
</svg>
