<svg id="Layer_1" data-name="Layer 1" xmlns="http://www.w3.org/2000/svg" xmlns:xlink="http://www.w3.org/1999/xlink" viewBox="0 0 22.89 22.89"><defs><style>.cls-1{fill:none;}.cls-2{clip-path:url(#clip-path);}.cls-3{fill:#184a7d;}</style><clipPath id="clip-path" transform="translate(-20.76 -21.12)"><rect class="cls-1" x="20.98" y="21.13" width="23" height="23"/></clipPath></defs><g id="Grupo_200" data-name="Grupo 200"><g class="cls-2"><g id="Grupo_199" data-name="Grupo 199"><path id="Trazado_35" data-name="Trazado 35" class="cls-3" d="M32.21,38.32a12.08,12.08,0,0,1-4.08-.71.43.43,0,0,1-.29-.4V35.07a2.93,2.93,0,0,1,1.81-2.53.43.43,0,0,1,.58.17.42.42,0,0,1-.17.58c-.9.5-1.36,1.1-1.36,1.78V36.9a11.38,11.38,0,0,0,7,0V35.07c0-.68-.47-1.28-1.39-1.78a.43.43,0,0,1,.41-.75h0a3,3,0,0,1,1.84,2.53v2.14a.43.43,0,0,1-.29.4,12.07,12.07,0,0,1-4.08.7" transform="translate(-20.76 -21.12)"/><path id="Trazado_36" data-name="Trazado 36" class="cls-3" d="M32.2,33.16c-1.55,0-2.8-1.94-2.8-3.55a2.81,2.81,0,0,1,5.62,0c0,1.61-1.26,3.55-2.83,3.55m0-5.48a1.92,1.92,0,0,0-1.93,1.93c0,1.18.94,2.7,1.93,2.7s2-1.52,2-2.7a2,2,0,0,0-2-1.93" transform="translate(-20.76 -21.12)"/><path id="Trazado_37" data-name="Trazado 37" class="cls-3" d="M26.63,27.41H21.19a.43.43,0,0,1-.43-.42h0V21.55a.44.44,0,0,1,.43-.43h3a.43.43,0,1,1,0,.86H21.62v4.58H26.2V23.94a.43.43,0,0,1,.86,0v3a.42.42,0,0,1-.43.42" transform="translate(-20.76 -21.12)"/><path id="Trazado_38" data-name="Trazado 38" class="cls-3" d="M23.69,25.57h0a.44.44,0,0,1-.34-.19l-1-1.43a.43.43,0,0,1,.71-.49l.65.94,1.64-2.2a.42.42,0,0,1,.6-.08.43.43,0,0,1,.09.6L24,25.4a.45.45,0,0,1-.34.17" transform="translate(-20.76 -21.12)"/><path id="Trazado_39" data-name="Trazado 39" class="cls-3" d="M43.23,27.41H37.79a.42.42,0,0,1-.43-.42h0V21.55a.43.43,0,0,1,.43-.43h3a.43.43,0,0,1,0,.86H38.22v4.58H42.8V23.94a.43.43,0,0,1,.43-.43.43.43,0,0,1,.43.43h0v3a.43.43,0,0,1-.43.42h0" transform="translate(-20.76 -21.12)"/><path id="Trazado_40" data-name="Trazado 40" class="cls-3" d="M40.29,25.57h0a.45.45,0,0,1-.35-.19L39,24a.43.43,0,0,1,.7-.49l.65.94L42,22.2a.43.43,0,1,1,.68.52h0l-2,2.68a.44.44,0,0,1-.34.17" transform="translate(-20.76 -21.12)"/><path id="Trazado_41" data-name="Trazado 41" class="cls-3" d="M43.23,44H37.79a.43.43,0,0,1-.43-.43h0V38.14a.43.43,0,0,1,.43-.43h3a.43.43,0,0,1,.43.43.43.43,0,0,1-.43.43H38.22v4.58H42.8V40.54a.43.43,0,0,1,.43-.43.43.43,0,0,1,.43.43h0v3a.43.43,0,0,1-.43.43h0" transform="translate(-20.76 -21.12)"/><path id="Trazado_42" data-name="Trazado 42" class="cls-3" d="M40.29,42.16h0a.44.44,0,0,1-.35-.18l-1-1.43a.43.43,0,0,1,.69-.51v0l.65.94L42,38.8a.43.43,0,0,1,.6-.09.42.42,0,0,1,.08.6l-2,2.68a.42.42,0,0,1-.34.17" transform="translate(-20.76 -21.12)"/><path id="Trazado_43" data-name="Trazado 43" class="cls-3" d="M26.63,44H21.19a.44.44,0,0,1-.43-.43h0V38.14a.44.44,0,0,1,.43-.43h3a.43.43,0,0,1,.43.43.43.43,0,0,1-.43.43H21.62v4.58H26.2V40.54a.43.43,0,0,1,.86,0h0v3a.43.43,0,0,1-.43.43h0" transform="translate(-20.76 -21.12)"/><path id="Trazado_44" data-name="Trazado 44" class="cls-3" d="M23.69,42.16h0a.43.43,0,0,1-.34-.18l-1-1.43A.43.43,0,1,1,23,40l0,0,.65.94,1.64-2.2a.43.43,0,0,1,.69.51L24,42a.42.42,0,0,1-.34.17" transform="translate(-20.76 -21.12)"/><path id="Trazado_45" data-name="Trazado 45" class="cls-3" d="M32.21,42.13a9.64,9.64,0,0,1-4.12-.92.43.43,0,0,1-.19-.58.44.44,0,0,1,.55-.2,8.84,8.84,0,0,0,7.52,0,.43.43,0,0,1,.36.78,9.61,9.61,0,0,1-4.12.92m3.94-17.4a.37.37,0,0,1-.18,0,8.67,8.67,0,0,0-7.51,0,.44.44,0,0,1-.58-.2.43.43,0,0,1,.21-.57h0a9.48,9.48,0,0,1,8.25,0,.43.43,0,0,1,.2.57.42.42,0,0,1-.39.24" transform="translate(-20.76 -21.12)"/><path id="Trazado_46" data-name="Trazado 46" class="cls-3" d="M40.47,36.93a.37.37,0,0,1-.18,0,.42.42,0,0,1-.21-.57h0a8.81,8.81,0,0,0,0-7.51.43.43,0,1,1,.78-.37h0a9.68,9.68,0,0,1,0,8.25.42.42,0,0,1-.39.24M24,36.93a.42.42,0,0,1-.38-.24,9.48,9.48,0,0,1,0-8.25.41.41,0,0,1,.57-.2.43.43,0,0,1,.2.57,8.67,8.67,0,0,0,0,7.51.43.43,0,0,1-.2.57.41.41,0,0,1-.19,0" transform="translate(-20.76 -21.12)"/></g></g></g></svg>