<svg id="Layer_1" data-name="Layer 1" xmlns="http://www.w3.org/2000/svg" viewBox="0 0 18.91 19.45"><defs><style>.cls-1{fill:#5cbdeb;}</style></defs><path id="ic_settings_24px" data-name="ic settings 24px" class="cls-1" d="M967.32,540.63a6.08,6.08,0,0,0,.07-1,6.2,6.2,0,0,0-.07-1l2-1.6a.48.48,0,0,0,.12-.62l-1.94-3.37a.5.5,0,0,0-.6-.21l-2.42,1a6.88,6.88,0,0,0-1.64-.95l-.37-2.58A.49.49,0,0,0,962,530h-3.88a.49.49,0,0,0-.48.41l-.37,2.58a7.63,7.63,0,0,0-1.64.95l-2.42-1a.48.48,0,0,0-.6.21l-1.94,3.37a.47.47,0,0,0,.11.62l2.06,1.6a6.08,6.08,0,0,0-.07.95,6.2,6.2,0,0,0,.07,1l-2.06,1.6a.49.49,0,0,0-.11.62l1.94,3.36a.5.5,0,0,0,.6.22l2.42-1a7.27,7.27,0,0,0,1.64,1l.37,2.57a.48.48,0,0,0,.48.41h3.89a.47.47,0,0,0,.47-.41l.37-2.57a7.27,7.27,0,0,0,1.64-1l2.43,1a.47.47,0,0,0,.59-.21l1.94-3.37a.48.48,0,0,0-.12-.62Zm-7.22,2.45a3.4,3.4,0,1,1,3.4-3.4,3.4,3.4,0,0,1-3.4,3.4Z" transform="translate(-950.64 -529.95)"/></svg>