<svg id="Layer_1" data-name="Layer 1" xmlns="http://www.w3.org/2000/svg" xmlns:xlink="http://www.w3.org/1999/xlink" viewBox="0 0 23.05 23.04"><defs><style>.cls-1{fill:none;}.cls-2{clip-path:url(#clip-path);}.cls-3{fill:#184a7d;}</style><clipPath id="clip-path" transform="translate(-20.85 -21.11)"><rect class="cls-1" x="20.85" y="21.1" width="23.05" height="23.05"/></clipPath></defs><g class="cls-2"><g id="Grupo_197" data-name="Grupo 197"><path id="Trazado_23" data-name="Trazado 23" class="cls-3" d="M32.37,32.7A12.08,12.08,0,0,1,28.25,32a.42.42,0,0,1-.28-.41V29.42a2.91,2.91,0,0,1,1.83-2.53.43.43,0,0,1,.41.76c-.92.5-1.37,1.08-1.37,1.77v1.84a11.11,11.11,0,0,0,7.07,0V29.42c0-.68-.46-1.26-1.4-1.77a.43.43,0,0,1-.17-.59.43.43,0,0,1,.58-.17,3,3,0,0,1,1.85,2.53v2.14a.43.43,0,0,1-.28.41,12,12,0,0,1-4.12.73" transform="translate(-20.85 -21.11)"/><path id="Trazado_24" data-name="Trazado 24" class="cls-3" d="M32.36,27.49c-1.56,0-2.82-1.94-2.82-3.55a2.83,2.83,0,0,1,5.66,0c0,1.61-1.27,3.55-2.84,3.55m0-5.53a2,2,0,0,0-1.95,2c0,1.17.94,2.69,1.95,2.69s2-1.52,2-2.69a2,2,0,0,0-2-2" transform="translate(-20.85 -21.11)"/><path id="Trazado_25" data-name="Trazado 25" class="cls-3" d="M35.11,44.15H29.63a.44.44,0,0,1-.43-.43h0V38.25a.44.44,0,0,1,.43-.44H32.7a.44.44,0,0,1,.43.44.43.43,0,0,1-.43.43H30.07v4.61h4.61V40.66a.43.43,0,1,1,.86,0v3.06a.43.43,0,0,1-.43.43h0" transform="translate(-20.85 -21.11)"/><path id="Trazado_26" data-name="Trazado 26" class="cls-3" d="M32.15,42.29h0a.42.42,0,0,1-.35-.19l-1-1.44a.43.43,0,0,1,.71-.49l.66.95,1.65-2.22a.44.44,0,0,1,.61-.06.43.43,0,0,1,.09.58l-2,2.7a.43.43,0,0,1-.35.17" transform="translate(-20.85 -21.11)"/><path id="Trazado_27" data-name="Trazado 27" class="cls-3" d="M43.46,44.15H38a.44.44,0,0,1-.43-.44h0V38.25a.44.44,0,0,1,.43-.44h3.06a.44.44,0,0,1,.43.44.43.43,0,0,1-.43.43H38.42v4.61H43V40.66a.43.43,0,1,1,.86,0h0v3.06a.43.43,0,0,1-.43.43h0" transform="translate(-20.85 -21.11)"/><path id="Trazado_28" data-name="Trazado 28" class="cls-3" d="M40.5,42.29h0a.42.42,0,0,1-.35-.19l-1-1.44a.43.43,0,0,1,.11-.6.44.44,0,0,1,.6.11l.65.95,1.66-2.22a.44.44,0,0,1,.61-.06.43.43,0,0,1,.08.58l-2,2.7a.46.46,0,0,1-.35.17" transform="translate(-20.85 -21.11)"/><path id="Trazado_29" data-name="Trazado 29" class="cls-3" d="M26.75,44.15H21.28a.43.43,0,0,1-.43-.43V38.25a.44.44,0,0,1,.43-.44h3.07a.44.44,0,0,1,.43.44.43.43,0,0,1-.43.43H21.71v4.61h4.61V40.66a.44.44,0,0,1,.43-.44.44.44,0,0,1,.44.44v3.06a.44.44,0,0,1-.44.43h0" transform="translate(-20.85 -21.11)"/><path id="Trazado_30" data-name="Trazado 30" class="cls-3" d="M23.79,42.29h0a.4.4,0,0,1-.34-.19l-1-1.44a.43.43,0,0,1,.11-.6.44.44,0,0,1,.6.11l.65.95,1.66-2.22a.44.44,0,0,1,.61-.06.43.43,0,0,1,.08.58l-2,2.7a.42.42,0,0,1-.34.17" transform="translate(-20.85 -21.11)"/><path id="Trazado_31" data-name="Trazado 31" class="cls-3" d="M32.41,37a.44.44,0,0,1-.43-.44V33.74a.43.43,0,0,1,.86,0v2.85a.44.44,0,0,1-.43.44" transform="translate(-20.85 -21.11)"/><path id="Trazado_32" data-name="Trazado 32" class="cls-3" d="M40.72,35.61H24.11a.43.43,0,1,1,0-.86H40.72a.43.43,0,1,1,0,.86h0" transform="translate(-20.85 -21.11)"/><path id="Trazado_33" data-name="Trazado 33" class="cls-3" d="M40.71,37a.44.44,0,0,1-.43-.44h0V35.18a.43.43,0,0,1,.43-.43.44.44,0,0,1,.44.43h0v1.41a.44.44,0,0,1-.44.44h0" transform="translate(-20.85 -21.11)"/><path id="Trazado_34" data-name="Trazado 34" class="cls-3" d="M24.11,37a.44.44,0,0,1-.43-.44V35.18a.43.43,0,0,1,.86,0h0v1.41a.44.44,0,0,1-.43.44" transform="translate(-20.85 -21.11)"/></g></g></svg>