<?xml version="1.0" encoding="utf-8"?>
<!-- Generator: Adobe Illustrator 24.0.0, SVG Export Plug-In . SVG Version: 6.00 Build 0)  -->
<svg version="1.1" id="Layer_1" xmlns="http://www.w3.org/2000/svg" xmlns:xlink="http://www.w3.org/1999/xlink" x="0px" y="0px"
	 viewBox="0 0 346.09 164.18" style="enable-background:new 0 0 346.09 164.18;" xml:space="preserve">
<style type="text/css">
	.st0{fill:#575756;}
	.st1{fill:#0099D4;}
	.st2{fill:#F28C00;}
	.st3{fill:#C50068;}
	.st4{fill:#DD052B;}
	.st5{fill:#FFDD00;}
	.st6{fill:#0060AC;}
	.st7{fill:#FFFFFF;}
	.st8{fill:#CAD400;}
</style>
<g>
	<path class="st0" d="M162.53,94.41h-0.3c-7.43,0-13.64-2.45-18.49-7.3c-4.84-4.84-7.3-11.06-7.3-18.48
		c0-7.63,2.51-13.99,7.45-18.95c4.95-4.94,11.32-7.45,18.94-7.45c7.02,0,13.26,2.33,18.53,6.94l1.65,1.45l-4.42,5.01l-1.64-1.43
		c-4.03-3.54-8.63-5.27-14.03-5.27c-5.84,0-10.5,1.8-14.25,5.45c-3.74,3.66-5.56,8.27-5.56,14.11c0,5.77,1.74,10.33,5.27,13.92
		c3.55,3.58,8.07,5.31,13.83,5.31c5.98,0,11.63-1.71,16.81-5.13l1.79-1.17l3.78,5.53l-1.85,1.21
		C176.44,92.3,169.65,94.41,162.53,94.41"/>
	<path class="st0" d="M209.34,94.41c-7.35,0-13.64-2.53-18.73-7.51c-5.08-4.99-7.67-11.26-7.67-18.64c0-7.31,2.59-13.55,7.73-18.55
		c5.11-4.97,11.4-7.49,18.67-7.49c7.27,0,13.54,2.52,18.62,7.5c5.1,4.99,7.68,11.23,7.68,18.54c0,7.3-2.58,13.56-7.67,18.59
		C222.89,91.86,216.61,94.41,209.34,94.41 M209.34,48.91c-5.5,0-10.06,1.84-13.95,5.62c-3.87,3.77-5.75,8.27-5.75,13.78
		c0,5.51,1.86,10.02,5.71,13.78c3.84,3.76,8.42,5.61,13.99,5.61c5.5,0,10.03-1.84,13.89-5.61c3.84-3.76,5.71-8.28,5.71-13.78
		c0-5.51-1.87-10.02-5.71-13.79C219.37,50.75,214.84,48.91,209.34,48.91"/>
	<path class="st0" d="M254.57,94.41h-6.45c-3.41,0-9.1-1.42-9.1-10.95V24.51h6.69v58.95c0,4.24,1.57,4.24,2.4,4.24h6.45V94.41z"/>
	<path class="st0" d="M280.78,94.41c-7.35,0-13.64-2.53-18.73-7.51c-5.09-4.99-7.68-11.26-7.68-18.64c0-7.31,2.61-13.55,7.74-18.55
		c5.12-4.97,11.4-7.49,18.68-7.49c7.27,0,13.54,2.52,18.62,7.5c5.09,4.99,7.69,11.23,7.69,18.54c0,7.3-2.58,13.56-7.69,18.59
		C294.32,91.86,288.05,94.41,280.78,94.41 M280.78,48.91c-5.51,0-10.06,1.84-13.95,5.62c-3.87,3.77-5.74,8.27-5.74,13.78
		c0,5.51,1.85,10.02,5.7,13.78c3.85,3.76,8.42,5.61,13.99,5.61c5.48,0,10.04-1.84,13.89-5.61c3.83-3.76,5.71-8.28,5.71-13.78
		c0-5.51-1.88-10.02-5.71-13.79C290.82,50.75,286.26,48.91,280.78,48.91"/>
	<path class="st0" d="M319.9,94.5l-6.69-0.29V55.08c0-6.1-2.22-6.15-3.17-6.17l-2.13-0.04v-6.69l2.2,0.03
		c3.02,0.04,7.79,1.22,9.38,7.91c6.63-5.32,12-7.91,16.35-7.91c3.35,0,6.59,1.26,9.62,3.74l1.66,1.35l-4.1,5.25l-1.72-1.35
		c-1.91-1.51-3.69-2.29-5.3-2.29h-0.1c-2.37,0-7.02,1.69-16,9.58V94.5z"/>
	<path class="st0" d="M96.99,164.18h-0.31c-7.42,0-13.64-2.46-18.48-7.3c-4.85-4.84-7.32-11.07-7.32-18.49
		c0-7.62,2.51-14,7.47-18.94C83.3,114.5,89.67,112,97.29,112c7.03,0,13.26,2.33,18.54,6.94l1.65,1.44l-4.43,5.01l-1.63-1.43
		c-4.04-3.55-8.63-5.27-14.03-5.27c-5.83,0-10.5,1.79-14.25,5.45c-3.74,3.65-5.55,8.27-5.55,14.09c0,5.78,1.73,10.34,5.27,13.92
		c3.55,3.58,8.06,5.32,13.82,5.32c5.98,0,11.64-1.72,16.82-5.12l1.79-1.19l3.78,5.54l-1.86,1.22
		C110.92,162.08,104.11,164.18,96.99,164.18"/>
	<path class="st0" d="M145.03,164.18c-7.53,0-13.82-2.66-18.7-7.92c-4.84-5.24-7.3-11.66-7.3-19.14c0-6.95,2.34-12.93,6.96-17.78
		c4.65-4.88,10.55-7.35,17.51-7.35c7.86,0,14.09,2.88,18.51,8.57c4.02,5.12,6.03,11.7,5.95,19.58l-0.01,2.15h-37.68
		c-1.56,0-2.94-0.14-4.14-0.4c0.76,3.88,2.55,7.21,5.42,10.07c3.72,3.7,8.13,5.5,13.48,5.5c6.33,0,11.17-2.58,14.78-7.91l1.29-1.88
		l5.44,4.06l-1.19,1.73C160.46,160.58,153.62,164.18,145.03,164.18 M126.04,133.46c0.04,0.85,0.37,2.15,4.22,2.15h30.65
		c-0.46-4.58-2.05-8.39-4.83-11.57c-3.11-3.59-7.24-5.33-12.59-5.33c-4.46,0-8.22,1.36-11.51,4.21
		C128.75,125.7,126.8,129.15,126.04,133.46"/>
	<path class="st0" d="M217.72,164.24l-2.24-0.05c-3.64-0.1-9.75-1.68-9.75-11.24v-23.4c0-1.63-0.55-3.4-1.65-5.26
		c-1.07-1.84-2.33-3.16-3.75-3.91c-2.04-1.12-4.41-1.67-7.03-1.67c-4.12,0-8.22,1.97-12.21,5.84v39.64h-6.71v-40.67
		c0-2.7-0.43-3.58-0.56-3.79l-0.05-0.09c-0.42-0.72-1.69-0.91-2.66-0.94l-2.11-0.07v-6.69l2.24,0.07c4.13,0.12,7.07,1.77,8.59,4.72
		c4.21-3.14,8.72-4.72,13.43-4.72l0.24,0c7.04,0,12.46,2.93,16.15,8.72c1.85,2.93,2.78,5.91,2.78,8.9v23.35
		c0,2.61,0.45,3.49,0.57,3.7c0.42,0.63,1.78,0.72,2.55,0.72h2.18V164.24z"/>
	<path class="st0" d="M240.98,164.18c-5.12,0-9.45-1.23-12.86-3.66c-4.05-2.86-6.12-6.95-6.12-12.16v-25.5h-5.8v-6.7h5.8V94.8h6.71
		v21.36h15.98v6.7h-15.98v25.57c0,3.16,1.14,5.36,3.58,6.95c2.14,1.39,5.07,2.09,8.69,2.09c3.34,0,7.16-0.68,11.33-2.02l2.12-0.68
		l1.99,6.53l-2.08,0.63C249.54,163.43,245.05,164.18,240.98,164.18"/>
	<path class="st0" d="M266.88,164.29l-6.7-0.29v-39.14c0-6.09-2.22-6.14-3.16-6.16l-2.13-0.04v-6.68l2.21,0.02
		c3.01,0.05,7.79,1.22,9.36,7.92c6.64-5.32,12-7.92,16.36-7.92c3.36,0,6.59,1.26,9.63,3.75l1.63,1.35l-4.08,5.24l-1.73-1.35
		c-1.92-1.53-3.69-2.29-5.29-2.29h-0.1c-2.35,0-7.03,1.69-15.99,9.59V164.29z"/>
	<path class="st0" d="M317.11,164.19c-7.35,0-13.64-2.52-18.72-7.51c-5.1-5-7.68-11.27-7.68-18.64c0-7.31,2.6-13.55,7.73-18.54
		c5.12-4.98,11.4-7.49,18.67-7.49c7.28,0,13.54,2.51,18.62,7.51c5.1,4.99,7.68,11.22,7.68,18.53c0,7.31-2.58,13.56-7.66,18.59
		C330.65,161.64,324.38,164.19,317.11,164.19 M317.11,118.71c-5.5,0-10.06,1.83-13.95,5.61c-3.87,3.76-5.75,8.28-5.75,13.77
		c0,5.51,1.86,10.02,5.7,13.79c3.86,3.77,8.42,5.61,13.99,5.61c5.49,0,10.04-1.84,13.89-5.61c3.84-3.76,5.71-8.28,5.71-13.79
		c0-5.5-1.87-10.01-5.71-13.77C327.14,120.54,322.6,118.71,317.11,118.71"/>
	<path class="st1" d="M96.07,33.46L73,59.82l18.13-36.26c0,0,4.94-14.82,19.77-14.82c12.35,0,12.51,3.68,27.19,1.23
		C152.91,7.51,163.8,5.7,163.8,5.7s-21.52,7.13-28.18,10.45c-2.52,1.26-4.6,2.66-6.34,4.12c-2.82-1.6-5.82-2.88-10.97-2.88
		C105.96,17.4,96.07,33.46,96.07,33.46"/>
	<path class="st2" d="M67.16,11.45c1.66,6.58,3.92,14.04,6.67,19.54c2.63,5.26,5.25,9.81,7.14,12.91l-1.56,3.13
		c-2.38-2.51-11.22-11.79-15.46-16.04C54.06,21.11,49.29,6.33,49.29,6.33S56.84,6.36,67.16,11.45"/>
	<path class="st3" d="M86.18,16.16c2.16,2.16,3.99,4.14,5.56,5.93c-0.42,0.92-0.61,1.48-0.61,1.48l-2.4,4.81
		c-1.26-1.69-4.66-5.9-9.96-9.74c-3.48-2.79-7.56-5.18-11.61-7.18C65.09,3.24,66.14,0,66.14,0S77.53,7.51,86.18,16.16"/>
	<path class="st4" d="M50.61,103.4c-1.36,0.52-2.68,1.09-3.96,1.73c-17.3,8.66-42.48,28.62-42.48,28.62l57.31-60.74l11.53-13.18
		l-1.65,3.29L50.61,103.4z"/>
	<path class="st1" d="M110.9,77.94c1.25-1.25,2.51-2.99,3.73-5.04c-3.86,7.29-10.43,17.05-25.97,24.8
		c-39.55,19.78-52.11,38.07-52.11,38.07L50.6,103.4C67.59,96.89,90.31,98.53,110.9,77.94"/>
	<path class="st4" d="M80.97,43.91c-1.89-3.11-4.51-7.66-7.14-12.92c-2.75-5.5-5.01-12.95-6.67-19.54c4.05,2,8.13,4.39,11.61,7.18
		c5.28,3.84,8.7,8.06,9.96,9.74L80.97,43.91z"/>
	<path class="st5" d="M61.48,73.01l-0.68,0.71c-6.53-1.89-17.14-5.01-26.52-8.13C19.46,60.65,0,48.5,0,48.5s9.83-3.22,27.1-6.13
		c4.46,3.8,8.66,7.26,11.56,9.44c8.88,6.67,21.87,16.24,25.31,18.35L61.48,73.01z"/>
	<path class="st6" d="M71.36,63.11L73,59.82l23.07-26.37c0,0,9.89-16.06,22.25-16.06c5.15,0,8.15,1.28,10.97,2.88
		c-1.98,1.67-3.5,3.41-4.67,5.11c-0.57-0.36-1.25-0.57-1.97-0.57c-2.05,0-3.72,1.66-3.72,3.7c0,1.63,1.06,3.02,2.53,3.51
		c-0.67,2.35-0.67,3.9-0.67,3.9s-1.24,27.19-4.94,34.6c-0.38,0.76-0.78,1.56-1.21,2.38c-1.22,2.04-2.48,3.78-3.73,5.03
		C90.31,98.53,67.59,96.89,50.6,103.4L71.36,63.11z"/>
	<path class="st4" d="M115.85,70.53c3.7-7.41,4.94-34.6,4.94-34.6s0.01-1.56,0.67-3.9c0.36,0.14,0.77,0.2,1.19,0.2
		c2.04,0,3.7-1.66,3.7-3.71c0-1.32-0.69-2.48-1.73-3.14c1.17-1.7,2.69-3.43,4.68-5.1c3.95,2.22,7.56,5.05,16.21,5.77
		c14.83,1.24,29.75,2.45,29.75,2.45s-24.82,1.76-32.21,2.5c-12.36,1.24-17.31,14.83-17.31,14.83s-5.12,17.08-11.1,27.09
		C115.06,72.08,115.46,71.29,115.85,70.53"/>
	<path class="st7" d="M118.93,28.52c0,2.05,1.66,3.7,3.72,3.7c2.04,0,3.7-1.65,3.7-3.7c0-2.04-1.66-3.7-3.7-3.7
		C120.6,24.81,118.93,26.48,118.93,28.52"/>
	<path class="st6" d="M63.95,30.99c2.11,2.11,5.35,5.47,8.37,8.61c-4.65-0.66-6.37-0.13-13.88-0.13c-10.66,0-21.64,1.28-31.33,2.91
		C16.37,33.25,7.24,23.74,7.24,23.74S46.64,22.34,63.95,30.99"/>
	<path class="st8" d="M38.74,51.9c-2.93-2.19-7.16-5.7-11.65-9.52c9.76-1.65,15.74-2.31,26.74-2.86c7.04,0,14.97-0.61,18.51,0.07
		c2.34,2.5,7.07,7.43,7.07,7.43l-0.04,0.09L73,59.83l-9.05,10.36C60.48,68.07,47.68,58.61,38.74,51.9"/>
</g>
</svg>
