<?xml version="1.0" encoding="utf-8"?>
<!-- Generator: Adobe Illustrator 24.0.0, SVG Export Plug-In . SVG Version: 6.00 Build 0)  -->
<svg version="1.1" id="Layer_1" xmlns="http://www.w3.org/2000/svg" xmlns:xlink="http://www.w3.org/1999/xlink" x="0px" y="0px"
	 viewBox="0 0 424.94 148.18" style="enable-background:new 0 0 424.94 148.18;" xml:space="preserve">
<style type="text/css">
	.st0{fill:#005CB9;}
	.st1{fill:#6ABF4B;}
</style>
<g>
	<path class="st0" d="M214.52,99.02l-4.98-4.46c-3.81,2.45-8.4,3.87-13.45,3.87c-13.96,0-23.97-10.4-23.97-23.26v-0.13
		c0-12.87,10.14-23.4,24.11-23.4c13.96,0,23.98,10.41,23.98,23.27v0.13c0,4.72-1.42,9.24-4.01,12.99l4.66,3.95L214.52,99.02z
		 M209.8,75.05c0-7.76-5.69-14.22-13.71-14.22c-8.01,0-13.58,6.33-13.58,14.09v0.13c0,7.75,5.69,14.22,13.71,14.22
		c2.2,0,4.2-0.45,5.95-1.23l-0.92-0.87c-5.79-5.19,0.43-12.53,0.43-12.53l6.89,6.74c0.84-1.87,1.23-3.94,1.23-6.2V75.05z"/>
	<path class="st0" d="M255.51,97.67l-9.7-14.48H238v9.5c0,3.16-2.74,4.98-4.81,4.98h-5.14V57.4c0-2.73,2.42-4.98,4.98-4.98h15.71
		c10.67,0,17.07,5.62,17.07,14.93v0.13c0,7.3-3.95,11.89-9.7,14.03l11.06,16.16H255.51z M255.71,67.87c0-4.26-2.97-6.46-7.82-6.46
		H238V74.4h10.08c4.85,0,7.63-2.58,7.63-6.4V67.87z"/>
	<path class="st0" d="M294.78,98.44c-13.96,0-23.98-10.4-23.98-23.26v-0.13c0-12.87,10.15-23.4,24.11-23.4
		c13.97,0,23.98,10.41,23.98,23.27v0.13C318.89,87.91,308.74,98.44,294.78,98.44 M308.48,75.05c0-7.76-5.69-14.22-13.7-14.22
		c-8.02,0-13.57,6.33-13.57,14.09v0.13c0,7.75,5.68,14.22,13.7,14.22c8.02,0,13.58-6.34,13.58-14.09V75.05z"/>
	<path class="st0" d="M361.1,92.69V68.13l-12.74,19.32h-0.26L335.5,68.32v29.35h-9.76V57.42c0-2.85,2.3-5,5.11-5h5.62l11.89,19.13
		l11.9-19.13h10.73v45.25h-4.97C363.5,97.67,361.1,95.66,361.1,92.69"/>
	<path class="st0" d="M414.53,97.67l-4.14-10.15h-19.13c0,0-1.49,3.67-2.86,7.02c-1.37,3.35-4.62,3.13-4.62,3.13h-6.81l19.39-45.58
		h9.18l19.4,45.58H414.53z M400.83,64.06l-6.02,14.67h12.02L400.83,64.06z"/>
	<path class="st1" d="M113.58,90.09l-0.29,0.01H84.34v28.63l0.01,0.11l-0.02,0.49c0.01,15.83,13.03,28.85,29.05,28.85
		c16.01,0,29.04-13.03,29.04-29.04C142.42,103.19,129.5,90.2,113.58,90.09"/>
	<path class="st0" d="M75.58,105.08c-1.18,0.11-2.39,0.18-3.63,0.18c-20.17,0-34.07-16.75-34.07-35.97V68.9
		c0-19.22,13.51-35.59,33.68-35.59c20.37,0,34.27,16.74,34.27,35.97v0.38c0,4.07-0.64,7.99-1.78,11.67h9.34
		c10.21,0,19.48,4.09,26.28,10.69c2.5-7.12,3.85-14.78,3.85-22.75V68.9c0-38.25-30.45-68.9-71.56-68.9C30.84,0,0,31.03,0,69.28v0.38
		c0,38.26,30.46,68.9,71.56,68.9c3.11,0,6.14-0.2,9.12-0.54c-3.23-5.57-5.11-12.01-5.11-18.88V105.08z"/>
</g>
</svg>
