<svg id="Layer_1" data-name="Layer 1" xmlns="http://www.w3.org/2000/svg" viewBox="0 0 23.45 16.42"><defs><style>.cls-1{fill:#5cbdeb;}</style></defs><path id="ic_supervisor_account_24px" data-name="ic supervisor account 24px" class="cls-1" d="M965.37,539.68a2.94,2.94,0,1,0-2.93-2.93h0a2.92,2.92,0,0,0,2.91,2.93Zm-8.79-1.17a3.52,3.52,0,1,0-3.52-3.53h0a3.5,3.5,0,0,0,3.48,3.52Zm8.79,3.51c-2.15,0-6.45,1.08-6.45,3.23v2.64h12.9v-2.64C971.82,543.1,967.52,542,965.37,542Zm-8.79-1.17c-2.73,0-8.21,1.37-8.21,4.11v2.93h8.21v-2.64c0-1,.39-2.75,2.78-4.07a14.55,14.55,0,0,0-2.78-.33Z" transform="translate(-948.37 -531.47)"/></svg>