<?xml version="1.0" encoding="utf-8"?>
<!-- Generator: Adobe Illustrator 24.0.0, SVG Export Plug-In . SVG Version: 6.00 Build 0)  -->
<svg version="1.1" id="Layer_1" xmlns="http://www.w3.org/2000/svg" xmlns:xlink="http://www.w3.org/1999/xlink" x="0px" y="0px"
	 viewBox="0 0 1190.55 572.68" style="enable-background:new 0 0 1190.55 572.68;" xml:space="preserve">
<style type="text/css">
	.st0{clip-path:url(#SVGID_2_);fill:#0099D4;}
	.st1{clip-path:url(#SVGID_2_);fill:#F28C00;}
	.st2{clip-path:url(#SVGID_2_);fill:#DD052B;}
	.st3{clip-path:url(#SVGID_2_);fill:#FFDD00;}
	.st4{clip-path:url(#SVGID_2_);fill:#0060AC;}
	.st5{clip-path:url(#SVGID_2_);fill:#CAD400;}
</style>
<g>
	<defs>
		<rect id="SVGID_1_" x="0.64" width="1189.26" height="572.68"/>
	</defs>
	<clipPath id="SVGID_2_">
		<use xlink:href="#SVGID_1_"  style="overflow:visible;"/>
	</clipPath>
	<path class="st0" d="M972.08,47.26L546.62,533.59l334.36-668.73c0,0,91.1-273.36,364.6-273.36c227.85,0,230.79,67.85,501.61,22.74
		c273.36-45.71,474.16-78.96,474.16-78.96S1824.3-333.24,1701.62-271.9c-46.55,23.25-84.87,49.16-116.88,76.03
		C1532.64-225.35,1477.4-249,1382.4-249C1154.47-249,972.08,47.26,972.08,47.26"/>
	<path class="st1" d="M438.81-358.66C469.44-237.26,511.05-99.7,561.85,1.68c48.46,97,96.77,180.9,131.6,238.14l-28.86,57.7
		C620.72,251.32,457.79,80.03,379.5,1.68C197.19-180.58,109.28-453.09,109.28-453.09S248.38-452.57,438.81-358.66"/>
	<path class="st2" d="M133.52,1337.37c-25.09,9.59-49.42,20.16-73.13,31.94c-319.16,159.65-783.55,527.88-783.55,527.88
		L333.94,776.82l212.7-243.19l-30.43,60.66L133.52,1337.37z"/>
	<path class="st0" d="M1245.58,867.81c23.16-23.16,46.26-55.24,68.74-92.87c-71.22,134.42-192.4,314.41-478.93,457.54
		c-729.45,364.8-961.26,702.15-961.26,702.15l259.22-597.28C446.75,1217.32,865.85,1247.55,1245.58,867.81"/>
	<path class="st2" d="M693.46,240C658.64,182.56,610.31,98.66,561.85,1.66c-50.79-101.38-92.4-238.94-123.04-360.33
		c74.72,36.88,149.91,81.02,214.21,132.44c97.4,70.87,160.4,148.61,183.62,179.71L693.46,240z"/>
	<path class="st3" d="M333.94,776.8l-12.67,13.17c-120.38-34.82-316-92.41-488.87-149.91c-273.5-91.23-632.38-315.26-632.38-315.26
		s181.29-59.35,499.81-113.02C-217.85,281.96-140.53,345.7-87,385.94C76.76,508.91,316.4,685.49,379.8,724.5L333.94,776.8z"/>
	<path class="st4" d="M516.23,594.26l30.37-60.66L972.06,47.26c0,0,182.47-296.26,410.31-296.26c95.08,0,150.32,23.65,202.35,53.13
		c-36.53,30.77-64.57,62.84-86.16,94.18c-10.55-6.65-23.04-10.5-36.27-10.5c-37.82,0-68.54,30.65-68.54,68.28
		c0,30.09,19.6,55.65,46.61,64.71c-12.27,43.24-12.4,71.98-12.4,71.98S1405.2,594.26,1336.78,731
		c-6.98,13.92-14.46,28.72-22.41,43.93c-22.48,37.64-45.66,69.71-68.82,92.88C865.82,1247.57,446.74,1217.2,133.4,1337.36
		L516.23,594.26z"/>
	<path class="st4" d="M379.52,1.69c38.87,39.01,98.63,100.98,154.36,158.88c-85.82-12.2-117.55-2.48-256.09-2.48
		c-196.59,0-399.14,23.65-577.98,53.68C-498,43.41-666.51-131.93-666.51-131.93S60.38-157.88,379.52,1.69"/>
	<path class="st5" d="M-98.35,384.53c-53.53-40.04-130.85-104.13-213.18-174.18c178.83-30.15,381.38-53.59,577.98-53.59
		c138.54,0,181.61-8.41,267.43,3.81c56.48,58.87,108.64,113.71,130.71,137.01L546.64,533.65L379.8,724.28
		c-63.42-38.73-320.31-218.25-484.07-341.22"/>
</g>
</svg>
